<mxfile host="app.diagrams.net" modified="2023-05-27T05:59:46.796Z" agent="Mozilla/5.0 (Windows NT 10.0; Win64; x64) AppleWebKit/537.36 (KHTML, like Gecko) Chrome/109.0.0.0 Safari/537.36" etag="FOGRFisnf-emFLXVFUsF" version="21.3.4" type="github">
  <diagram id="R2lEEEUBdFMjLlhIrx00" name="Page-1">
    <mxGraphModel dx="1091" dy="1526" grid="1" gridSize="10" guides="1" tooltips="1" connect="1" arrows="0" fold="1" page="1" pageScale="1" pageWidth="850" pageHeight="1100" background="#FFFFFF" math="0" shadow="0" extFonts="Permanent Marker^https://fonts.googleapis.com/css?family=Permanent+Marker">
      <root>
        <mxCell id="0" />
        <mxCell id="1" parent="0" />
        <mxCell id="G-78G9HvQrEz_k5AtjZF-8" style="edgeStyle=orthogonalEdgeStyle;rounded=0;orthogonalLoop=1;jettySize=auto;html=1;exitX=0.5;exitY=1;exitDx=0;exitDy=0;entryX=0;entryY=0.5;entryDx=0;entryDy=0;endArrow=none;endFill=0;shadow=0;labelBackgroundColor=none;fontColor=default;" parent="1" source="G-78G9HvQrEz_k5AtjZF-1" target="G-78G9HvQrEz_k5AtjZF-5" edge="1">
          <mxGeometry relative="1" as="geometry" />
        </mxCell>
        <mxCell id="G-78G9HvQrEz_k5AtjZF-10" style="rounded=0;orthogonalLoop=1;jettySize=auto;html=1;exitX=0.5;exitY=1;exitDx=0;exitDy=0;endArrow=none;endFill=0;entryX=0.25;entryY=0;entryDx=0;entryDy=0;shadow=0;labelBackgroundColor=none;fontColor=default;" parent="1" source="G-78G9HvQrEz_k5AtjZF-9" target="G-78G9HvQrEz_k5AtjZF-1" edge="1">
          <mxGeometry relative="1" as="geometry">
            <mxPoint x="890" y="-1021.5" as="targetPoint" />
          </mxGeometry>
        </mxCell>
        <mxCell id="G-78G9HvQrEz_k5AtjZF-12" style="edgeStyle=none;shape=connector;rounded=0;orthogonalLoop=1;jettySize=auto;html=1;exitX=0.5;exitY=0;exitDx=0;exitDy=0;entryX=0.5;entryY=1;entryDx=0;entryDy=0;labelBackgroundColor=none;fontFamily=Helvetica;fontSize=11;fontColor=default;endArrow=none;endFill=0;shadow=0;" parent="1" source="G-78G9HvQrEz_k5AtjZF-1" target="G-78G9HvQrEz_k5AtjZF-11" edge="1">
          <mxGeometry relative="1" as="geometry" />
        </mxCell>
        <mxCell id="G-78G9HvQrEz_k5AtjZF-14" style="edgeStyle=none;shape=connector;rounded=0;orthogonalLoop=1;jettySize=auto;html=1;exitX=0.75;exitY=0;exitDx=0;exitDy=0;entryX=0.393;entryY=1;entryDx=0;entryDy=0;entryPerimeter=0;labelBackgroundColor=none;fontFamily=Helvetica;fontSize=11;fontColor=default;endArrow=none;endFill=0;shadow=0;" parent="1" source="G-78G9HvQrEz_k5AtjZF-1" target="G-78G9HvQrEz_k5AtjZF-13" edge="1">
          <mxGeometry relative="1" as="geometry" />
        </mxCell>
        <mxCell id="G-78G9HvQrEz_k5AtjZF-20" style="edgeStyle=none;shape=connector;rounded=0;orthogonalLoop=1;jettySize=auto;html=1;exitX=0;exitY=0.5;exitDx=0;exitDy=0;labelBackgroundColor=none;fontFamily=Helvetica;fontSize=11;fontColor=default;endArrow=none;endFill=0;shadow=0;" parent="1" source="G-78G9HvQrEz_k5AtjZF-2" target="G-78G9HvQrEz_k5AtjZF-19" edge="1">
          <mxGeometry relative="1" as="geometry" />
        </mxCell>
        <mxCell id="G-78G9HvQrEz_k5AtjZF-22" style="edgeStyle=none;shape=connector;rounded=0;orthogonalLoop=1;jettySize=auto;html=1;labelBackgroundColor=none;fontFamily=Helvetica;fontSize=11;fontColor=default;endArrow=none;endFill=0;exitX=0;exitY=0.5;exitDx=0;exitDy=0;shadow=0;" parent="1" source="G-78G9HvQrEz_k5AtjZF-2" target="G-78G9HvQrEz_k5AtjZF-21" edge="1">
          <mxGeometry relative="1" as="geometry">
            <mxPoint x="810" y="-976.5" as="sourcePoint" />
          </mxGeometry>
        </mxCell>
        <mxCell id="G-78G9HvQrEz_k5AtjZF-24" style="edgeStyle=none;shape=connector;rounded=0;orthogonalLoop=1;jettySize=auto;html=1;exitX=1;exitY=0.5;exitDx=0;exitDy=0;entryX=0;entryY=0.5;entryDx=0;entryDy=0;labelBackgroundColor=none;fontFamily=Helvetica;fontSize=11;fontColor=default;endArrow=none;endFill=0;shadow=0;" parent="1" source="G-78G9HvQrEz_k5AtjZF-1" target="G-78G9HvQrEz_k5AtjZF-23" edge="1">
          <mxGeometry relative="1" as="geometry" />
        </mxCell>
        <mxCell id="G-78G9HvQrEz_k5AtjZF-27" style="edgeStyle=none;shape=connector;rounded=0;orthogonalLoop=1;jettySize=auto;html=1;exitX=0;exitY=0.5;exitDx=0;exitDy=0;entryX=0.938;entryY=0.767;entryDx=0;entryDy=0;entryPerimeter=0;labelBackgroundColor=none;fontFamily=Helvetica;fontSize=11;fontColor=default;endArrow=none;endFill=0;shadow=0;" parent="1" source="G-78G9HvQrEz_k5AtjZF-1" target="G-78G9HvQrEz_k5AtjZF-26" edge="1">
          <mxGeometry relative="1" as="geometry" />
        </mxCell>
        <mxCell id="G-78G9HvQrEz_k5AtjZF-35" style="edgeStyle=none;shape=connector;rounded=0;orthogonalLoop=1;jettySize=auto;html=1;exitX=1;exitY=0.75;exitDx=0;exitDy=0;labelBackgroundColor=none;fontFamily=Helvetica;fontSize=11;fontColor=default;endArrow=none;endFill=0;shadow=0;" parent="1" source="G-78G9HvQrEz_k5AtjZF-1" target="G-78G9HvQrEz_k5AtjZF-34" edge="1">
          <mxGeometry relative="1" as="geometry" />
        </mxCell>
        <mxCell id="G-78G9HvQrEz_k5AtjZF-39" style="edgeStyle=none;shape=connector;rounded=0;orthogonalLoop=1;jettySize=auto;html=1;exitX=0;exitY=0.75;exitDx=0;exitDy=0;entryX=1;entryY=0;entryDx=0;entryDy=0;labelBackgroundColor=none;fontFamily=Helvetica;fontSize=11;fontColor=default;endArrow=none;endFill=0;shadow=0;" parent="1" source="G-78G9HvQrEz_k5AtjZF-1" target="G-78G9HvQrEz_k5AtjZF-38" edge="1">
          <mxGeometry relative="1" as="geometry" />
        </mxCell>
        <mxCell id="G-78G9HvQrEz_k5AtjZF-45" style="edgeStyle=none;shape=connector;rounded=0;orthogonalLoop=1;jettySize=auto;html=1;exitX=1;exitY=1;exitDx=0;exitDy=0;labelBackgroundColor=none;fontFamily=Helvetica;fontSize=11;fontColor=default;endArrow=none;endFill=0;shadow=0;" parent="1" source="G-78G9HvQrEz_k5AtjZF-1" target="G-78G9HvQrEz_k5AtjZF-44" edge="1">
          <mxGeometry relative="1" as="geometry" />
        </mxCell>
        <mxCell id="G-78G9HvQrEz_k5AtjZF-1" value="Usuarios&lt;br&gt;(PADRE)" style="whiteSpace=wrap;html=1;align=center;shadow=0;labelBackgroundColor=none;" parent="1" vertex="1">
          <mxGeometry x="815" y="-977.5" width="100" height="40" as="geometry" />
        </mxCell>
        <mxCell id="G-78G9HvQrEz_k5AtjZF-17" style="edgeStyle=none;shape=connector;rounded=0;orthogonalLoop=1;jettySize=auto;html=1;exitX=0.648;exitY=0.817;exitDx=0;exitDy=0;entryX=0.5;entryY=0;entryDx=0;entryDy=0;labelBackgroundColor=none;fontFamily=Helvetica;fontSize=11;fontColor=default;endArrow=none;endFill=0;exitPerimeter=0;shadow=0;" parent="1" source="G-78G9HvQrEz_k5AtjZF-47" target="G-78G9HvQrEz_k5AtjZF-16" edge="1">
          <mxGeometry relative="1" as="geometry" />
        </mxCell>
        <mxCell id="m0Y3ykSrjnnwdMNcB-pi-7" style="edgeStyle=none;shape=connector;rounded=0;orthogonalLoop=1;jettySize=auto;html=1;exitX=0;exitY=0.5;exitDx=0;exitDy=0;entryX=1;entryY=0.5;entryDx=0;entryDy=0;labelBackgroundColor=none;fontFamily=Helvetica;fontSize=11;fontColor=default;endArrow=none;endFill=0;shadow=0;" parent="1" source="G-78G9HvQrEz_k5AtjZF-2" target="m0Y3ykSrjnnwdMNcB-pi-6" edge="1">
          <mxGeometry relative="1" as="geometry" />
        </mxCell>
        <mxCell id="G-78G9HvQrEz_k5AtjZF-2" value="Colaboradores&lt;br&gt;(HIJO)" style="whiteSpace=wrap;html=1;align=center;shadow=0;labelBackgroundColor=none;" parent="1" vertex="1">
          <mxGeometry x="625" y="-836.5" width="100" height="40" as="geometry" />
        </mxCell>
        <mxCell id="m0Y3ykSrjnnwdMNcB-pi-2" style="rounded=0;orthogonalLoop=1;jettySize=auto;html=1;exitX=0;exitY=1;exitDx=0;exitDy=0;endArrow=none;endFill=0;entryX=0.6;entryY=0.025;entryDx=0;entryDy=0;entryPerimeter=0;shadow=0;labelBackgroundColor=none;fontColor=default;" parent="1" source="m0Y3ykSrjnnwdMNcB-pi-3" target="G-78G9HvQrEz_k5AtjZF-16" edge="1">
          <mxGeometry relative="1" as="geometry" />
        </mxCell>
        <mxCell id="m0Y3ykSrjnnwdMNcB-pi-9" style="edgeStyle=none;shape=connector;rounded=0;orthogonalLoop=1;jettySize=auto;html=1;exitX=1;exitY=0.5;exitDx=0;exitDy=0;entryX=0;entryY=0.5;entryDx=0;entryDy=0;labelBackgroundColor=none;fontFamily=Helvetica;fontSize=11;fontColor=default;endArrow=none;endFill=0;shadow=0;" parent="1" source="G-78G9HvQrEz_k5AtjZF-4" edge="1">
          <mxGeometry relative="1" as="geometry">
            <mxPoint x="1170" y="-817.5" as="targetPoint" />
          </mxGeometry>
        </mxCell>
        <mxCell id="G-78G9HvQrEz_k5AtjZF-4" value="publico_registrado&lt;br&gt;(HIJO)" style="whiteSpace=wrap;html=1;align=center;shadow=0;labelBackgroundColor=none;" parent="1" vertex="1">
          <mxGeometry x="1020" y="-836.5" width="110" height="40" as="geometry" />
        </mxCell>
        <mxCell id="G-78G9HvQrEz_k5AtjZF-5" value="rol" style="triangle;rotation=90;verticalAlign=top;align=center;labelPosition=center;verticalLabelPosition=middle;html=1;whiteSpace=wrap;spacing=2;spacingBottom=5;spacingLeft=0;spacingRight=0;fontSize=12;horizontal=0;spacingTop=0;shadow=0;labelBackgroundColor=none;" parent="1" vertex="1">
          <mxGeometry x="836.3399999999999" y="-886.5" width="57.32" height="81.94" as="geometry" />
        </mxCell>
        <mxCell id="G-78G9HvQrEz_k5AtjZF-6" value="" style="endArrow=none;html=1;rounded=0;exitX=0.5;exitY=0;exitDx=0;exitDy=0;endFill=0;startArrow=block;startFill=1;shadow=0;labelBackgroundColor=none;fontColor=default;" parent="1" source="G-78G9HvQrEz_k5AtjZF-2" target="G-78G9HvQrEz_k5AtjZF-5" edge="1">
          <mxGeometry width="50" height="50" relative="1" as="geometry">
            <mxPoint x="960" y="-775.5" as="sourcePoint" />
            <mxPoint x="1010" y="-825.5" as="targetPoint" />
          </mxGeometry>
        </mxCell>
        <mxCell id="G-78G9HvQrEz_k5AtjZF-7" value="" style="endArrow=block;html=1;rounded=0;exitX=0.5;exitY=0;exitDx=0;exitDy=0;entryX=0.5;entryY=0;entryDx=0;entryDy=0;endFill=1;shadow=0;labelBackgroundColor=none;fontColor=default;" parent="1" source="G-78G9HvQrEz_k5AtjZF-5" target="G-78G9HvQrEz_k5AtjZF-4" edge="1">
          <mxGeometry width="50" height="50" relative="1" as="geometry">
            <mxPoint x="960" y="-775.5" as="sourcePoint" />
            <mxPoint x="1010" y="-825.5" as="targetPoint" />
          </mxGeometry>
        </mxCell>
        <mxCell id="G-78G9HvQrEz_k5AtjZF-9" value="id_usuario" style="ellipse;whiteSpace=wrap;html=1;align=center;fontStyle=4;shadow=0;labelBackgroundColor=none;" parent="1" vertex="1">
          <mxGeometry x="730" y="-1060" width="75" height="28" as="geometry" />
        </mxCell>
        <mxCell id="G-78G9HvQrEz_k5AtjZF-11" value="nombre" style="ellipse;whiteSpace=wrap;html=1;align=center;fontFamily=Helvetica;fontSize=11;shadow=0;labelBackgroundColor=none;" parent="1" vertex="1">
          <mxGeometry x="816.25" y="-1046.5" width="63" height="28" as="geometry" />
        </mxCell>
        <mxCell id="G-78G9HvQrEz_k5AtjZF-13" value="apellido" style="ellipse;whiteSpace=wrap;html=1;align=center;fontFamily=Helvetica;fontSize=11;shadow=0;labelBackgroundColor=none;" parent="1" vertex="1">
          <mxGeometry x="883" y="-1056.5" width="56" height="24.5" as="geometry" />
        </mxCell>
        <mxCell id="G-78G9HvQrEz_k5AtjZF-55" style="edgeStyle=none;shape=connector;rounded=0;orthogonalLoop=1;jettySize=auto;html=1;labelBackgroundColor=none;fontFamily=Helvetica;fontSize=11;fontColor=default;endArrow=none;endFill=0;exitX=0;exitY=0.5;exitDx=0;exitDy=0;shadow=0;" parent="1" source="G-78G9HvQrEz_k5AtjZF-16" target="G-78G9HvQrEz_k5AtjZF-51" edge="1">
          <mxGeometry relative="1" as="geometry" />
        </mxCell>
        <mxCell id="G-78G9HvQrEz_k5AtjZF-56" style="edgeStyle=none;shape=connector;rounded=0;orthogonalLoop=1;jettySize=auto;html=1;exitX=1;exitY=0.5;exitDx=0;exitDy=0;labelBackgroundColor=none;fontFamily=Helvetica;fontSize=11;fontColor=default;endArrow=none;endFill=0;shadow=0;" parent="1" source="G-78G9HvQrEz_k5AtjZF-16" target="G-78G9HvQrEz_k5AtjZF-52" edge="1">
          <mxGeometry relative="1" as="geometry" />
        </mxCell>
        <mxCell id="G-78G9HvQrEz_k5AtjZF-57" style="edgeStyle=none;shape=connector;rounded=0;orthogonalLoop=1;jettySize=auto;html=1;entryX=0;entryY=0.5;entryDx=0;entryDy=0;labelBackgroundColor=none;fontFamily=Helvetica;fontSize=11;fontColor=default;endArrow=none;endFill=0;exitX=1;exitY=0.5;exitDx=0;exitDy=0;shadow=0;" parent="1" source="G-78G9HvQrEz_k5AtjZF-16" target="G-78G9HvQrEz_k5AtjZF-54" edge="1">
          <mxGeometry relative="1" as="geometry">
            <mxPoint x="910" y="-666.5" as="sourcePoint" />
          </mxGeometry>
        </mxCell>
        <mxCell id="m0Y3ykSrjnnwdMNcB-pi-1" style="rounded=0;orthogonalLoop=1;jettySize=auto;html=1;exitX=0.5;exitY=1;exitDx=0;exitDy=0;entryX=0.5;entryY=0;entryDx=0;entryDy=0;endArrow=none;endFill=0;shadow=0;labelBackgroundColor=none;fontColor=default;" parent="1" source="G-78G9HvQrEz_k5AtjZF-16" edge="1">
          <mxGeometry relative="1" as="geometry">
            <mxPoint x="855" y="-426.5" as="targetPoint" />
          </mxGeometry>
        </mxCell>
        <mxCell id="G-78G9HvQrEz_k5AtjZF-16" value="Articulos" style="whiteSpace=wrap;html=1;align=center;fontFamily=Helvetica;fontSize=11;shadow=0;labelBackgroundColor=none;" parent="1" vertex="1">
          <mxGeometry x="805" y="-626.5" width="100" height="40" as="geometry" />
        </mxCell>
        <mxCell id="TPlJymGG3jugFg58Cx_--14" style="edgeStyle=none;shape=connector;curved=1;rounded=0;orthogonalLoop=1;jettySize=auto;html=1;exitX=0;exitY=0.5;exitDx=0;exitDy=0;labelBackgroundColor=none;fontFamily=Helvetica;fontSize=12;fontColor=default;endArrow=none;endFill=0;startSize=8;endSize=8;shadow=0;" parent="1" target="TPlJymGG3jugFg58Cx_--13" edge="1">
          <mxGeometry relative="1" as="geometry">
            <mxPoint x="805" y="-406.5" as="sourcePoint" />
          </mxGeometry>
        </mxCell>
        <mxCell id="TPlJymGG3jugFg58Cx_--17" style="edgeStyle=none;shape=connector;curved=1;rounded=0;orthogonalLoop=1;jettySize=auto;html=1;exitX=0;exitY=0.5;exitDx=0;exitDy=0;labelBackgroundColor=none;fontFamily=Helvetica;fontSize=12;fontColor=default;endArrow=none;endFill=0;startSize=8;endSize=8;shadow=0;" parent="1" target="TPlJymGG3jugFg58Cx_--15" edge="1">
          <mxGeometry relative="1" as="geometry">
            <mxPoint x="805" y="-406.5" as="sourcePoint" />
          </mxGeometry>
        </mxCell>
        <mxCell id="TPlJymGG3jugFg58Cx_--20" style="edgeStyle=none;shape=connector;curved=1;rounded=0;orthogonalLoop=1;jettySize=auto;html=1;exitX=1;exitY=0.5;exitDx=0;exitDy=0;entryX=0;entryY=0.5;entryDx=0;entryDy=0;labelBackgroundColor=none;fontFamily=Helvetica;fontSize=12;fontColor=default;endArrow=none;endFill=0;startSize=8;endSize=8;shadow=0;" parent="1" target="TPlJymGG3jugFg58Cx_--18" edge="1">
          <mxGeometry relative="1" as="geometry">
            <mxPoint x="905" y="-406.5" as="sourcePoint" />
          </mxGeometry>
        </mxCell>
        <mxCell id="TPlJymGG3jugFg58Cx_--27" style="edgeStyle=none;shape=connector;curved=1;rounded=0;orthogonalLoop=1;jettySize=auto;html=1;exitX=1;exitY=0.5;exitDx=0;exitDy=0;labelBackgroundColor=none;fontFamily=Helvetica;fontSize=12;fontColor=default;endArrow=none;endFill=0;startSize=8;endSize=8;shadow=0;" parent="1" target="TPlJymGG3jugFg58Cx_--22" edge="1">
          <mxGeometry relative="1" as="geometry">
            <mxPoint x="905" y="-406.5" as="sourcePoint" />
          </mxGeometry>
        </mxCell>
        <mxCell id="TPlJymGG3jugFg58Cx_--29" style="edgeStyle=none;shape=connector;curved=1;rounded=0;orthogonalLoop=1;jettySize=auto;html=1;exitX=0.5;exitY=1;exitDx=0;exitDy=0;labelBackgroundColor=none;fontFamily=Helvetica;fontSize=12;fontColor=default;endArrow=none;endFill=0;startSize=8;endSize=8;shadow=0;" parent="1" edge="1">
          <mxGeometry relative="1" as="geometry">
            <mxPoint x="855" y="-386.5" as="sourcePoint" />
            <mxPoint x="855" y="-336.5" as="targetPoint" />
          </mxGeometry>
        </mxCell>
        <mxCell id="G-78G9HvQrEz_k5AtjZF-19" value="telefono" style="ellipse;shape=doubleEllipse;margin=3;whiteSpace=wrap;html=1;align=center;fontFamily=Helvetica;fontSize=11;shadow=0;labelBackgroundColor=none;" parent="1" vertex="1">
          <mxGeometry x="500" y="-832.5" width="60" height="36" as="geometry" />
        </mxCell>
        <mxCell id="G-78G9HvQrEz_k5AtjZF-21" value="estado" style="ellipse;shape=doubleEllipse;margin=3;whiteSpace=wrap;html=1;align=center;fontFamily=Helvetica;fontSize=11;shadow=0;labelBackgroundColor=none;" parent="1" vertex="1">
          <mxGeometry x="490" y="-786.5" width="70" height="35.5" as="geometry" />
        </mxCell>
        <mxCell id="G-78G9HvQrEz_k5AtjZF-23" value="email" style="ellipse;whiteSpace=wrap;html=1;align=center;fontFamily=Helvetica;fontSize=11;fontStyle=4;shadow=0;labelBackgroundColor=none;" parent="1" vertex="1">
          <mxGeometry x="950" y="-1036.5" width="70" height="30" as="geometry" />
        </mxCell>
        <mxCell id="G-78G9HvQrEz_k5AtjZF-25" style="edgeStyle=none;shape=connector;rounded=0;orthogonalLoop=1;jettySize=auto;html=1;exitX=0;exitY=0.5;exitDx=0;exitDy=0;entryX=0;entryY=0.25;entryDx=0;entryDy=0;labelBackgroundColor=none;fontFamily=Helvetica;fontSize=11;fontColor=default;endArrow=none;endFill=0;shadow=0;" parent="1" source="G-78G9HvQrEz_k5AtjZF-1" target="G-78G9HvQrEz_k5AtjZF-1" edge="1">
          <mxGeometry relative="1" as="geometry" />
        </mxCell>
        <mxCell id="G-78G9HvQrEz_k5AtjZF-31" style="edgeStyle=none;shape=connector;rounded=0;orthogonalLoop=1;jettySize=auto;html=1;exitX=0;exitY=1;exitDx=0;exitDy=0;entryX=1;entryY=0;entryDx=0;entryDy=0;labelBackgroundColor=none;fontFamily=Helvetica;fontSize=11;fontColor=default;endArrow=none;endFill=0;shadow=0;" parent="1" source="G-78G9HvQrEz_k5AtjZF-26" target="G-78G9HvQrEz_k5AtjZF-30" edge="1">
          <mxGeometry relative="1" as="geometry" />
        </mxCell>
        <mxCell id="G-78G9HvQrEz_k5AtjZF-32" style="edgeStyle=none;shape=connector;rounded=0;orthogonalLoop=1;jettySize=auto;html=1;exitX=0;exitY=0.5;exitDx=0;exitDy=0;labelBackgroundColor=none;fontFamily=Helvetica;fontSize=11;fontColor=default;endArrow=none;endFill=0;shadow=0;" parent="1" source="G-78G9HvQrEz_k5AtjZF-26" target="G-78G9HvQrEz_k5AtjZF-29" edge="1">
          <mxGeometry relative="1" as="geometry" />
        </mxCell>
        <mxCell id="G-78G9HvQrEz_k5AtjZF-33" style="edgeStyle=none;shape=connector;rounded=0;orthogonalLoop=1;jettySize=auto;html=1;exitX=0;exitY=0;exitDx=0;exitDy=0;entryX=1;entryY=0.5;entryDx=0;entryDy=0;labelBackgroundColor=none;fontFamily=Helvetica;fontSize=11;fontColor=default;endArrow=none;endFill=0;shadow=0;" parent="1" source="G-78G9HvQrEz_k5AtjZF-26" target="G-78G9HvQrEz_k5AtjZF-28" edge="1">
          <mxGeometry relative="1" as="geometry" />
        </mxCell>
        <mxCell id="G-78G9HvQrEz_k5AtjZF-26" value="fecha_registro" style="ellipse;whiteSpace=wrap;html=1;align=center;fontFamily=Helvetica;fontSize=11;shadow=0;labelBackgroundColor=none;" parent="1" vertex="1">
          <mxGeometry x="680" y="-1012.5" width="80" height="30" as="geometry" />
        </mxCell>
        <mxCell id="G-78G9HvQrEz_k5AtjZF-28" value="mes" style="ellipse;whiteSpace=wrap;html=1;align=center;fontFamily=Helvetica;fontSize=11;shadow=0;labelBackgroundColor=none;" parent="1" vertex="1">
          <mxGeometry x="590" y="-1048.5" width="60" height="30" as="geometry" />
        </mxCell>
        <mxCell id="G-78G9HvQrEz_k5AtjZF-29" value="dia" style="ellipse;whiteSpace=wrap;html=1;align=center;fontFamily=Helvetica;fontSize=11;shadow=0;labelBackgroundColor=none;" parent="1" vertex="1">
          <mxGeometry x="585" y="-1012.5" width="60" height="30" as="geometry" />
        </mxCell>
        <mxCell id="G-78G9HvQrEz_k5AtjZF-30" value="año" style="ellipse;whiteSpace=wrap;html=1;align=center;fontFamily=Helvetica;fontSize=11;shadow=0;labelBackgroundColor=none;" parent="1" vertex="1">
          <mxGeometry x="580" y="-976.5" width="70" height="24" as="geometry" />
        </mxCell>
        <mxCell id="G-78G9HvQrEz_k5AtjZF-34" value="avatar" style="ellipse;whiteSpace=wrap;html=1;align=center;fontFamily=Helvetica;fontSize=11;shadow=0;labelBackgroundColor=none;" parent="1" vertex="1">
          <mxGeometry x="1000" y="-1012.5" width="80" height="35" as="geometry" />
        </mxCell>
        <mxCell id="G-78G9HvQrEz_k5AtjZF-38" value="nombre_usuario" style="ellipse;whiteSpace=wrap;html=1;align=center;fontStyle=4;fontFamily=Helvetica;fontSize=11;shadow=0;labelBackgroundColor=none;" parent="1" vertex="1">
          <mxGeometry x="691.83" y="-956.5" width="100" height="30" as="geometry" />
        </mxCell>
        <mxCell id="G-78G9HvQrEz_k5AtjZF-44" value="contraseña" style="ellipse;whiteSpace=wrap;html=1;align=center;fontFamily=Helvetica;fontSize=11;shadow=0;labelBackgroundColor=none;" parent="1" vertex="1">
          <mxGeometry x="980" y="-972.5" width="80" height="35" as="geometry" />
        </mxCell>
        <mxCell id="G-78G9HvQrEz_k5AtjZF-46" style="edgeStyle=none;shape=connector;rounded=0;orthogonalLoop=1;jettySize=auto;html=1;exitX=0;exitY=0.5;exitDx=0;exitDy=0;labelBackgroundColor=none;fontFamily=Helvetica;fontSize=11;fontColor=default;endArrow=none;endFill=0;shadow=0;" parent="1" source="G-78G9HvQrEz_k5AtjZF-5" target="G-78G9HvQrEz_k5AtjZF-5" edge="1">
          <mxGeometry relative="1" as="geometry" />
        </mxCell>
        <mxCell id="G-78G9HvQrEz_k5AtjZF-48" value="" style="edgeStyle=none;shape=connector;rounded=0;orthogonalLoop=1;jettySize=auto;html=1;exitX=0.5;exitY=1;exitDx=0;exitDy=0;labelBackgroundColor=none;fontFamily=Helvetica;fontSize=11;fontColor=default;endArrow=none;endFill=0;shadow=0;" parent="1" source="G-78G9HvQrEz_k5AtjZF-2" target="G-78G9HvQrEz_k5AtjZF-47" edge="1">
          <mxGeometry relative="1" as="geometry">
            <mxPoint x="675" y="-796.5" as="sourcePoint" />
            <mxPoint x="866" y="-726.5" as="targetPoint" />
          </mxGeometry>
        </mxCell>
        <mxCell id="G-78G9HvQrEz_k5AtjZF-47" value="publican" style="shape=rhombus;perimeter=rhombusPerimeter;whiteSpace=wrap;html=1;align=center;fontFamily=Helvetica;fontSize=11;shadow=0;labelBackgroundColor=none;" parent="1" vertex="1">
          <mxGeometry x="718.08" y="-746.5" width="73.75" height="40" as="geometry" />
        </mxCell>
        <mxCell id="G-78G9HvQrEz_k5AtjZF-49" style="edgeStyle=none;shape=connector;rounded=0;orthogonalLoop=1;jettySize=auto;html=1;exitX=0.5;exitY=0;exitDx=0;exitDy=0;entryX=0;entryY=0;entryDx=0;entryDy=0;labelBackgroundColor=none;fontFamily=Helvetica;fontSize=11;fontColor=default;endArrow=none;endFill=0;shadow=0;" parent="1" source="G-78G9HvQrEz_k5AtjZF-47" target="G-78G9HvQrEz_k5AtjZF-47" edge="1">
          <mxGeometry relative="1" as="geometry" />
        </mxCell>
        <mxCell id="G-78G9HvQrEz_k5AtjZF-50" style="edgeStyle=none;shape=connector;rounded=0;orthogonalLoop=1;jettySize=auto;html=1;exitX=1;exitY=0.5;exitDx=0;exitDy=0;labelBackgroundColor=none;fontFamily=Helvetica;fontSize=11;fontColor=default;endArrow=none;endFill=0;shadow=0;" parent="1" source="G-78G9HvQrEz_k5AtjZF-47" target="G-78G9HvQrEz_k5AtjZF-47" edge="1">
          <mxGeometry relative="1" as="geometry" />
        </mxCell>
        <mxCell id="G-78G9HvQrEz_k5AtjZF-51" value="contenido_completo" style="ellipse;whiteSpace=wrap;html=1;align=center;fontFamily=Helvetica;fontSize=11;shadow=0;labelBackgroundColor=none;" parent="1" vertex="1">
          <mxGeometry x="650" y="-656.5" width="115" height="40" as="geometry" />
        </mxCell>
        <mxCell id="G-78G9HvQrEz_k5AtjZF-52" value="titulo" style="ellipse;whiteSpace=wrap;html=1;align=center;fontFamily=Helvetica;fontSize=11;shadow=0;labelBackgroundColor=none;" parent="1" vertex="1">
          <mxGeometry x="1000" y="-536.5" width="80" height="30" as="geometry" />
        </mxCell>
        <mxCell id="G-78G9HvQrEz_k5AtjZF-54" value="contenido_breve" style="ellipse;whiteSpace=wrap;html=1;align=center;fontFamily=Helvetica;fontSize=11;shadow=0;labelBackgroundColor=none;" parent="1" vertex="1">
          <mxGeometry x="995" y="-636.5" width="105" height="40" as="geometry" />
        </mxCell>
        <mxCell id="G-78G9HvQrEz_k5AtjZF-59" style="edgeStyle=none;shape=connector;rounded=0;orthogonalLoop=1;jettySize=auto;html=1;exitX=0;exitY=0.5;exitDx=0;exitDy=0;labelBackgroundColor=none;fontFamily=Helvetica;fontSize=11;fontColor=default;endArrow=none;endFill=0;entryX=1;entryY=0.5;entryDx=0;entryDy=0;shadow=0;" parent="1" source="G-78G9HvQrEz_k5AtjZF-58" target="G-78G9HvQrEz_k5AtjZF-16" edge="1">
          <mxGeometry relative="1" as="geometry">
            <mxPoint x="910" y="-666.5" as="targetPoint" />
          </mxGeometry>
        </mxCell>
        <mxCell id="G-78G9HvQrEz_k5AtjZF-58" value="&lt;u&gt;imagen&lt;/u&gt;" style="ellipse;whiteSpace=wrap;html=1;align=center;fontFamily=Helvetica;fontSize=11;shadow=0;labelBackgroundColor=none;" parent="1" vertex="1">
          <mxGeometry x="1005" y="-586.5" width="70" height="40" as="geometry" />
        </mxCell>
        <mxCell id="G-78G9HvQrEz_k5AtjZF-61" style="edgeStyle=none;shape=connector;rounded=0;orthogonalLoop=1;jettySize=auto;html=1;exitX=0.936;exitY=0.3;exitDx=0;exitDy=0;labelBackgroundColor=none;fontFamily=Helvetica;fontSize=11;fontColor=default;endArrow=none;endFill=0;exitPerimeter=0;entryX=0;entryY=0.5;entryDx=0;entryDy=0;shadow=0;" parent="1" source="G-78G9HvQrEz_k5AtjZF-60" target="G-78G9HvQrEz_k5AtjZF-16" edge="1">
          <mxGeometry relative="1" as="geometry">
            <mxPoint x="810" y="-606.5" as="targetPoint" />
          </mxGeometry>
        </mxCell>
        <mxCell id="TPlJymGG3jugFg58Cx_--10" style="edgeStyle=none;shape=connector;curved=1;rounded=0;orthogonalLoop=1;jettySize=auto;html=1;exitX=0;exitY=1;exitDx=0;exitDy=0;entryX=1;entryY=0;entryDx=0;entryDy=0;labelBackgroundColor=none;fontFamily=Helvetica;fontSize=12;fontColor=default;endArrow=none;endFill=0;startSize=8;endSize=8;shadow=0;" parent="1" source="G-78G9HvQrEz_k5AtjZF-60" target="TPlJymGG3jugFg58Cx_--7" edge="1">
          <mxGeometry relative="1" as="geometry" />
        </mxCell>
        <mxCell id="TPlJymGG3jugFg58Cx_--11" style="edgeStyle=none;shape=connector;curved=1;rounded=0;orthogonalLoop=1;jettySize=auto;html=1;exitX=0;exitY=0;exitDx=0;exitDy=0;entryX=1;entryY=0.5;entryDx=0;entryDy=0;labelBackgroundColor=none;fontFamily=Helvetica;fontSize=12;fontColor=default;endArrow=none;endFill=0;startSize=8;endSize=8;shadow=0;" parent="1" source="G-78G9HvQrEz_k5AtjZF-60" target="TPlJymGG3jugFg58Cx_--6" edge="1">
          <mxGeometry relative="1" as="geometry" />
        </mxCell>
        <mxCell id="TPlJymGG3jugFg58Cx_--12" style="edgeStyle=none;shape=connector;curved=1;rounded=0;orthogonalLoop=1;jettySize=auto;html=1;exitX=0;exitY=0.5;exitDx=0;exitDy=0;entryX=1;entryY=0.5;entryDx=0;entryDy=0;labelBackgroundColor=none;fontFamily=Helvetica;fontSize=12;fontColor=default;endArrow=none;endFill=0;startSize=8;endSize=8;shadow=0;" parent="1" source="G-78G9HvQrEz_k5AtjZF-60" target="TPlJymGG3jugFg58Cx_--8" edge="1">
          <mxGeometry relative="1" as="geometry" />
        </mxCell>
        <mxCell id="G-78G9HvQrEz_k5AtjZF-60" value="fecha_publicacion" style="ellipse;whiteSpace=wrap;html=1;align=center;fontFamily=Helvetica;fontSize=11;shadow=0;labelBackgroundColor=none;" parent="1" vertex="1">
          <mxGeometry x="645" y="-596.5" width="103.66" height="30" as="geometry" />
        </mxCell>
        <mxCell id="G-78G9HvQrEz_k5AtjZF-63" style="edgeStyle=none;shape=connector;rounded=0;orthogonalLoop=1;jettySize=auto;html=1;exitX=1;exitY=0.5;exitDx=0;exitDy=0;entryX=0;entryY=0.5;entryDx=0;entryDy=0;labelBackgroundColor=none;fontFamily=Helvetica;fontSize=11;fontColor=default;endArrow=none;endFill=0;shadow=0;" parent="1" source="G-78G9HvQrEz_k5AtjZF-62" target="G-78G9HvQrEz_k5AtjZF-16" edge="1">
          <mxGeometry relative="1" as="geometry" />
        </mxCell>
        <mxCell id="m0Y3ykSrjnnwdMNcB-pi-16" style="edgeStyle=none;shape=connector;rounded=0;orthogonalLoop=1;jettySize=auto;html=1;exitX=0.5;exitY=1;exitDx=0;exitDy=0;entryX=1;entryY=0.5;entryDx=0;entryDy=0;labelBackgroundColor=none;fontFamily=Helvetica;fontSize=11;fontColor=default;endArrow=none;endFill=0;shadow=0;" parent="1" source="G-78G9HvQrEz_k5AtjZF-62" target="m0Y3ykSrjnnwdMNcB-pi-15" edge="1">
          <mxGeometry relative="1" as="geometry" />
        </mxCell>
        <mxCell id="G-78G9HvQrEz_k5AtjZF-62" value="estado" style="ellipse;shape=doubleEllipse;margin=3;whiteSpace=wrap;html=1;align=center;fontFamily=Helvetica;fontSize=11;shadow=0;labelBackgroundColor=none;" parent="1" vertex="1">
          <mxGeometry x="680" y="-556.5" width="80" height="30" as="geometry" />
        </mxCell>
        <mxCell id="m0Y3ykSrjnnwdMNcB-pi-4" value="" style="rounded=0;orthogonalLoop=1;jettySize=auto;html=1;exitX=0.5;exitY=1;exitDx=0;exitDy=0;endArrow=none;endFill=0;entryX=0.678;entryY=0.15;entryDx=0;entryDy=0;entryPerimeter=0;shadow=0;labelBackgroundColor=none;fontColor=default;" parent="1" source="G-78G9HvQrEz_k5AtjZF-4" target="m0Y3ykSrjnnwdMNcB-pi-3" edge="1">
          <mxGeometry relative="1" as="geometry">
            <mxPoint x="1075" y="-796.5" as="sourcePoint" />
            <mxPoint x="1000" y="-736.5" as="targetPoint" />
          </mxGeometry>
        </mxCell>
        <mxCell id="TPlJymGG3jugFg58Cx_--3" style="edgeStyle=none;curved=1;rounded=0;orthogonalLoop=1;jettySize=auto;html=1;exitX=1;exitY=1;exitDx=0;exitDy=0;entryX=0;entryY=0.5;entryDx=0;entryDy=0;fontSize=12;startSize=8;endSize=8;endArrow=none;endFill=0;shadow=0;labelBackgroundColor=none;fontColor=default;" parent="1" source="m0Y3ykSrjnnwdMNcB-pi-3" target="TPlJymGG3jugFg58Cx_--1" edge="1">
          <mxGeometry relative="1" as="geometry" />
        </mxCell>
        <mxCell id="TPlJymGG3jugFg58Cx_--4" style="edgeStyle=none;shape=connector;curved=1;rounded=0;orthogonalLoop=1;jettySize=auto;html=1;exitX=0;exitY=0;exitDx=0;exitDy=0;entryX=1;entryY=0.5;entryDx=0;entryDy=0;labelBackgroundColor=none;fontFamily=Helvetica;fontSize=12;fontColor=default;endArrow=none;endFill=0;startSize=8;endSize=8;shadow=0;" parent="1" source="m0Y3ykSrjnnwdMNcB-pi-3" target="TPlJymGG3jugFg58Cx_--2" edge="1">
          <mxGeometry relative="1" as="geometry" />
        </mxCell>
        <mxCell id="m0Y3ykSrjnnwdMNcB-pi-3" value="comentan" style="shape=rhombus;perimeter=rhombusPerimeter;whiteSpace=wrap;html=1;align=center;fontFamily=Helvetica;fontSize=11;shadow=0;labelBackgroundColor=none;" parent="1" vertex="1">
          <mxGeometry x="950" y="-736.5" width="90" height="40" as="geometry" />
        </mxCell>
        <mxCell id="m0Y3ykSrjnnwdMNcB-pi-5" style="edgeStyle=none;shape=connector;rounded=0;orthogonalLoop=1;jettySize=auto;html=1;exitX=0.5;exitY=1;exitDx=0;exitDy=0;labelBackgroundColor=none;fontFamily=Helvetica;fontSize=11;fontColor=default;endArrow=none;endFill=0;shadow=0;" parent="1" source="G-78G9HvQrEz_k5AtjZF-52" target="G-78G9HvQrEz_k5AtjZF-52" edge="1">
          <mxGeometry relative="1" as="geometry" />
        </mxCell>
        <mxCell id="m0Y3ykSrjnnwdMNcB-pi-6" value="id_colaborador" style="ellipse;whiteSpace=wrap;html=1;align=center;fontStyle=4;fontFamily=Helvetica;fontSize=11;shadow=0;labelBackgroundColor=none;" parent="1" vertex="1">
          <mxGeometry x="495" y="-866.5" width="80" height="30" as="geometry" />
        </mxCell>
        <mxCell id="m0Y3ykSrjnnwdMNcB-pi-8" value="id_publico" style="ellipse;whiteSpace=wrap;html=1;align=center;fontStyle=4;fontFamily=Helvetica;fontSize=11;shadow=0;labelBackgroundColor=none;" parent="1" vertex="1">
          <mxGeometry x="1170" y="-829.5" width="80" height="30" as="geometry" />
        </mxCell>
        <mxCell id="m0Y3ykSrjnnwdMNcB-pi-12" style="edgeStyle=none;shape=connector;rounded=0;orthogonalLoop=1;jettySize=auto;html=1;exitX=0.5;exitY=0;exitDx=0;exitDy=0;labelBackgroundColor=none;fontFamily=Helvetica;fontSize=11;fontColor=default;endArrow=none;endFill=0;shadow=0;" parent="1" target="G-78G9HvQrEz_k5AtjZF-21" edge="1">
          <mxGeometry relative="1" as="geometry">
            <mxPoint x="510" y="-726.5" as="sourcePoint" />
          </mxGeometry>
        </mxCell>
        <mxCell id="m0Y3ykSrjnnwdMNcB-pi-13" style="edgeStyle=none;shape=connector;rounded=0;orthogonalLoop=1;jettySize=auto;html=1;exitX=0.5;exitY=0;exitDx=0;exitDy=0;entryX=0.5;entryY=1;entryDx=0;entryDy=0;labelBackgroundColor=none;fontFamily=Helvetica;fontSize=11;fontColor=default;endArrow=none;endFill=0;shadow=0;" parent="1" source="m0Y3ykSrjnnwdMNcB-pi-11" target="G-78G9HvQrEz_k5AtjZF-21" edge="1">
          <mxGeometry relative="1" as="geometry" />
        </mxCell>
        <mxCell id="m0Y3ykSrjnnwdMNcB-pi-11" value="inactivo" style="ellipse;whiteSpace=wrap;html=1;align=center;fontFamily=Helvetica;fontSize=11;shadow=0;labelBackgroundColor=none;" parent="1" vertex="1">
          <mxGeometry x="540" y="-726.5" width="85" height="30" as="geometry" />
        </mxCell>
        <mxCell id="m0Y3ykSrjnnwdMNcB-pi-17" style="edgeStyle=none;shape=connector;rounded=0;orthogonalLoop=1;jettySize=auto;html=1;entryX=0.5;entryY=1;entryDx=0;entryDy=0;labelBackgroundColor=none;fontFamily=Helvetica;fontSize=11;fontColor=default;endArrow=none;endFill=0;shadow=0;" parent="1" source="m0Y3ykSrjnnwdMNcB-pi-14" target="G-78G9HvQrEz_k5AtjZF-62" edge="1">
          <mxGeometry relative="1" as="geometry" />
        </mxCell>
        <mxCell id="m0Y3ykSrjnnwdMNcB-pi-14" value="activo" style="ellipse;whiteSpace=wrap;html=1;align=center;fontFamily=Helvetica;fontSize=11;shadow=0;labelBackgroundColor=none;" parent="1" vertex="1">
          <mxGeometry x="700" y="-516.5" width="60" height="30" as="geometry" />
        </mxCell>
        <mxCell id="m0Y3ykSrjnnwdMNcB-pi-15" value="inactivo" style="ellipse;whiteSpace=wrap;html=1;align=center;fontFamily=Helvetica;fontSize=11;shadow=0;labelBackgroundColor=none;" parent="1" vertex="1">
          <mxGeometry x="606.8299999999999" y="-526.5" width="85" height="30" as="geometry" />
        </mxCell>
        <mxCell id="TPlJymGG3jugFg58Cx_--1" value="texto" style="ellipse;whiteSpace=wrap;html=1;align=center;fontFamily=Helvetica;fontSize=11;shadow=0;labelBackgroundColor=none;" parent="1" vertex="1">
          <mxGeometry x="1040" y="-706.5" width="80" height="30" as="geometry" />
        </mxCell>
        <mxCell id="TPlJymGG3jugFg58Cx_--2" value="id_comentario" style="ellipse;whiteSpace=wrap;html=1;align=center;fontStyle=4;fontFamily=Helvetica;fontSize=11;shadow=0;labelBackgroundColor=none;" parent="1" vertex="1">
          <mxGeometry x="871" y="-756.5" width="80" height="30" as="geometry" />
        </mxCell>
        <mxCell id="TPlJymGG3jugFg58Cx_--5" value="contiene" style="shape=rhombus;perimeter=rhombusPerimeter;whiteSpace=wrap;html=1;align=center;fontFamily=Helvetica;fontSize=12;shadow=0;labelBackgroundColor=none;" parent="1" vertex="1">
          <mxGeometry x="795" y="-536.5" width="120" height="60" as="geometry" />
        </mxCell>
        <mxCell id="TPlJymGG3jugFg58Cx_--6" value="mes" style="ellipse;whiteSpace=wrap;html=1;align=center;fontFamily=Helvetica;fontSize=11;shadow=0;labelBackgroundColor=none;" parent="1" vertex="1">
          <mxGeometry x="565" y="-631.5" width="60" height="30" as="geometry" />
        </mxCell>
        <mxCell id="TPlJymGG3jugFg58Cx_--7" value="dia" style="ellipse;whiteSpace=wrap;html=1;align=center;fontFamily=Helvetica;fontSize=11;shadow=0;labelBackgroundColor=none;" parent="1" vertex="1">
          <mxGeometry x="570" y="-566.5" width="60" height="30" as="geometry" />
        </mxCell>
        <mxCell id="TPlJymGG3jugFg58Cx_--8" value="año" style="ellipse;whiteSpace=wrap;html=1;align=center;fontFamily=Helvetica;fontSize=11;shadow=0;labelBackgroundColor=none;" parent="1" vertex="1">
          <mxGeometry x="555" y="-596.5" width="70" height="24" as="geometry" />
        </mxCell>
        <mxCell id="TPlJymGG3jugFg58Cx_--13" value="nombre" style="ellipse;whiteSpace=wrap;html=1;align=center;fontStyle=4;fontFamily=Helvetica;fontSize=12;shadow=0;labelBackgroundColor=none;" parent="1" vertex="1">
          <mxGeometry x="680" y="-386.5" width="80" height="30" as="geometry" />
        </mxCell>
        <mxCell id="TPlJymGG3jugFg58Cx_--15" value="descripcion" style="ellipse;whiteSpace=wrap;html=1;align=center;fontFamily=Helvetica;fontSize=11;shadow=0;labelBackgroundColor=none;" parent="1" vertex="1">
          <mxGeometry x="680" y="-422" width="80" height="30" as="geometry" />
        </mxCell>
        <mxCell id="TPlJymGG3jugFg58Cx_--16" style="edgeStyle=none;shape=connector;rounded=0;orthogonalLoop=1;jettySize=auto;html=1;exitX=0.5;exitY=1;exitDx=0;exitDy=0;labelBackgroundColor=none;fontFamily=Helvetica;fontSize=11;fontColor=default;endArrow=none;endFill=0;shadow=0;" parent="1" source="TPlJymGG3jugFg58Cx_--15" target="TPlJymGG3jugFg58Cx_--15" edge="1">
          <mxGeometry relative="1" as="geometry" />
        </mxCell>
        <mxCell id="TPlJymGG3jugFg58Cx_--18" value="imagen" style="ellipse;whiteSpace=wrap;html=1;align=center;fontFamily=Helvetica;fontSize=11;shadow=0;labelBackgroundColor=none;" parent="1" vertex="1">
          <mxGeometry x="950" y="-436.5" width="80" height="30" as="geometry" />
        </mxCell>
        <mxCell id="TPlJymGG3jugFg58Cx_--19" style="edgeStyle=none;shape=connector;rounded=0;orthogonalLoop=1;jettySize=auto;html=1;exitX=0.5;exitY=1;exitDx=0;exitDy=0;labelBackgroundColor=none;fontFamily=Helvetica;fontSize=11;fontColor=default;endArrow=none;endFill=0;shadow=0;" parent="1" source="TPlJymGG3jugFg58Cx_--18" target="TPlJymGG3jugFg58Cx_--18" edge="1">
          <mxGeometry relative="1" as="geometry" />
        </mxCell>
        <mxCell id="TPlJymGG3jugFg58Cx_--21" style="edgeStyle=none;shape=connector;rounded=0;orthogonalLoop=1;jettySize=auto;html=1;exitX=0.5;exitY=1;exitDx=0;exitDy=0;entryX=0.624;entryY=0.067;entryDx=0;entryDy=0;labelBackgroundColor=none;fontFamily=Helvetica;fontSize=11;fontColor=default;endArrow=none;endFill=0;entryPerimeter=0;shadow=0;" parent="1" source="TPlJymGG3jugFg58Cx_--22" target="TPlJymGG3jugFg58Cx_--25" edge="1">
          <mxGeometry relative="1" as="geometry" />
        </mxCell>
        <mxCell id="TPlJymGG3jugFg58Cx_--22" value="estado" style="ellipse;shape=doubleEllipse;margin=3;whiteSpace=wrap;html=1;align=center;fontFamily=Helvetica;fontSize=11;shadow=0;labelBackgroundColor=none;" parent="1" vertex="1">
          <mxGeometry x="960" y="-396.5" width="80" height="30" as="geometry" />
        </mxCell>
        <mxCell id="TPlJymGG3jugFg58Cx_--23" style="edgeStyle=none;shape=connector;rounded=0;orthogonalLoop=1;jettySize=auto;html=1;entryX=0.5;entryY=1;entryDx=0;entryDy=0;labelBackgroundColor=none;fontFamily=Helvetica;fontSize=11;fontColor=default;endArrow=none;endFill=0;shadow=0;" parent="1" source="TPlJymGG3jugFg58Cx_--24" target="TPlJymGG3jugFg58Cx_--22" edge="1">
          <mxGeometry relative="1" as="geometry" />
        </mxCell>
        <mxCell id="TPlJymGG3jugFg58Cx_--24" value="activo" style="ellipse;whiteSpace=wrap;html=1;align=center;fontFamily=Helvetica;fontSize=11;shadow=0;labelBackgroundColor=none;" parent="1" vertex="1">
          <mxGeometry x="1017.5" y="-356.5" width="60" height="30" as="geometry" />
        </mxCell>
        <mxCell id="TPlJymGG3jugFg58Cx_--25" value="inactivo" style="ellipse;whiteSpace=wrap;html=1;align=center;fontFamily=Helvetica;fontSize=11;shadow=0;labelBackgroundColor=none;" parent="1" vertex="1">
          <mxGeometry x="930" y="-356.5" width="85" height="30" as="geometry" />
        </mxCell>
        <mxCell id="5o4xbBL1ZPF9Y1dV_yGu-2" style="edgeStyle=orthogonalEdgeStyle;rounded=0;orthogonalLoop=1;jettySize=auto;html=1;exitX=0.5;exitY=1;exitDx=0;exitDy=0;endArrow=none;endFill=0;shadow=0;labelBackgroundColor=none;fontColor=default;" edge="1" parent="1" source="5o4xbBL1ZPF9Y1dV_yGu-3">
          <mxGeometry relative="1" as="geometry">
            <mxPoint x="855" y="-206.5" as="targetPoint" />
          </mxGeometry>
        </mxCell>
        <mxCell id="5o4xbBL1ZPF9Y1dV_yGu-4" value="" style="edgeStyle=orthogonalEdgeStyle;rounded=0;orthogonalLoop=1;jettySize=auto;html=1;exitX=0.5;exitY=1;exitDx=0;exitDy=0;endArrow=block;endFill=1;shadow=0;labelBackgroundColor=none;fontColor=default;" edge="1" parent="1" target="5o4xbBL1ZPF9Y1dV_yGu-3">
          <mxGeometry relative="1" as="geometry">
            <mxPoint x="855" y="-206.5" as="targetPoint" />
            <mxPoint x="855" y="-276.5" as="sourcePoint" />
          </mxGeometry>
        </mxCell>
        <mxCell id="5o4xbBL1ZPF9Y1dV_yGu-3" value="sub-categorias&lt;br&gt;(HIJO)" style="shape=ext;margin=3;double=1;whiteSpace=wrap;html=1;align=center;fontFamily=Helvetica;fontSize=11;shadow=0;labelBackgroundColor=none;" vertex="1" parent="1">
          <mxGeometry x="805" y="-236.5" width="100" height="40" as="geometry" />
        </mxCell>
        <mxCell id="5o4xbBL1ZPF9Y1dV_yGu-5" value="Categorias&lt;br&gt;(PADRE)" style="whiteSpace=wrap;html=1;align=center;fontFamily=Helvetica;fontSize=11;shadow=0;labelBackgroundColor=none;" vertex="1" parent="1">
          <mxGeometry x="805" y="-426.5" width="100" height="40" as="geometry" />
        </mxCell>
        <mxCell id="5o4xbBL1ZPF9Y1dV_yGu-6" value="pertenece" style="triangle;whiteSpace=wrap;html=1;fontFamily=Helvetica;fontSize=11;rotation=90;horizontal=0;verticalAlign=top;shadow=0;labelBackgroundColor=none;" vertex="1" parent="1">
          <mxGeometry x="825" y="-346.5" width="60" height="80" as="geometry" />
        </mxCell>
        <mxCell id="5o4xbBL1ZPF9Y1dV_yGu-7" value="(0,1)" style="text;strokeColor=none;align=center;fillColor=none;html=1;verticalAlign=middle;whiteSpace=wrap;rounded=0;" vertex="1" parent="1">
          <mxGeometry x="1020" y="-866.5" width="60" height="30" as="geometry" />
        </mxCell>
        <mxCell id="5o4xbBL1ZPF9Y1dV_yGu-8" value="(0,1)" style="text;strokeColor=none;align=center;fillColor=none;html=1;verticalAlign=middle;whiteSpace=wrap;rounded=0;" vertex="1" parent="1">
          <mxGeometry x="677.5" y="-866.5" width="60" height="30" as="geometry" />
        </mxCell>
        <mxCell id="5o4xbBL1ZPF9Y1dV_yGu-9" value="(1,1)" style="text;strokeColor=none;align=center;fillColor=none;html=1;verticalAlign=middle;whiteSpace=wrap;rounded=0;" vertex="1" parent="1">
          <mxGeometry x="860" y="-937.5" width="60" height="30" as="geometry" />
        </mxCell>
        <mxCell id="5o4xbBL1ZPF9Y1dV_yGu-10" value="(0,n)" style="text;strokeColor=none;align=center;fillColor=none;html=1;verticalAlign=middle;whiteSpace=wrap;rounded=0;" vertex="1" parent="1">
          <mxGeometry x="791.8299999999999" y="-656.5" width="60" height="30" as="geometry" />
        </mxCell>
        <mxCell id="5o4xbBL1ZPF9Y1dV_yGu-11" value="(1,1)" style="text;strokeColor=none;align=center;fillColor=none;html=1;verticalAlign=middle;whiteSpace=wrap;rounded=0;" vertex="1" parent="1">
          <mxGeometry x="680" y="-802.5" width="60" height="30" as="geometry" />
        </mxCell>
        <mxCell id="5o4xbBL1ZPF9Y1dV_yGu-12" value="(0,n)" style="text;strokeColor=none;align=center;fillColor=none;html=1;verticalAlign=middle;whiteSpace=wrap;rounded=0;" vertex="1" parent="1">
          <mxGeometry x="875" y="-651.5" width="60" height="30" as="geometry" />
        </mxCell>
        <mxCell id="5o4xbBL1ZPF9Y1dV_yGu-13" value="(0,n)" style="text;strokeColor=none;align=center;fillColor=none;html=1;verticalAlign=middle;whiteSpace=wrap;rounded=0;" vertex="1" parent="1">
          <mxGeometry x="1060" y="-802.5" width="60" height="30" as="geometry" />
        </mxCell>
        <mxCell id="5o4xbBL1ZPF9Y1dV_yGu-14" value="(0,n)" style="text;strokeColor=none;align=center;fillColor=none;html=1;verticalAlign=middle;whiteSpace=wrap;rounded=0;" vertex="1" parent="1">
          <mxGeometry x="845" y="-452" width="60" height="30" as="geometry" />
        </mxCell>
        <mxCell id="5o4xbBL1ZPF9Y1dV_yGu-15" value="(1,n)" style="text;strokeColor=none;align=center;fillColor=none;html=1;verticalAlign=middle;whiteSpace=wrap;rounded=0;" vertex="1" parent="1">
          <mxGeometry x="845" y="-586.5" width="60" height="30" as="geometry" />
        </mxCell>
        <mxCell id="5o4xbBL1ZPF9Y1dV_yGu-16" value="(0,n)" style="text;strokeColor=none;align=center;fillColor=none;html=1;verticalAlign=middle;whiteSpace=wrap;rounded=0;" vertex="1" parent="1">
          <mxGeometry x="845" y="-266.5" width="60" height="30" as="geometry" />
        </mxCell>
        <mxCell id="5o4xbBL1ZPF9Y1dV_yGu-17" value="(1,1)" style="text;strokeColor=none;align=center;fillColor=none;html=1;verticalAlign=middle;whiteSpace=wrap;rounded=0;" vertex="1" parent="1">
          <mxGeometry x="845" y="-392" width="60" height="30" as="geometry" />
        </mxCell>
        <mxCell id="5o4xbBL1ZPF9Y1dV_yGu-18" value="activo" style="ellipse;whiteSpace=wrap;html=1;align=center;fontFamily=Helvetica;fontSize=11;shadow=0;labelBackgroundColor=none;" vertex="1" parent="1">
          <mxGeometry x="470" y="-726.5" width="60" height="30" as="geometry" />
        </mxCell>
        <mxCell id="5o4xbBL1ZPF9Y1dV_yGu-19" value="Usuarios" style="shape=table;startSize=30;container=1;collapsible=1;childLayout=tableLayout;fixedRows=1;rowLines=0;fontStyle=1;align=center;resizeLast=1;html=1;" vertex="1" parent="1">
          <mxGeometry x="160" y="-110" width="180" height="250" as="geometry">
            <mxRectangle x="50" y="-120" width="90" height="30" as="alternateBounds" />
          </mxGeometry>
        </mxCell>
        <mxCell id="5o4xbBL1ZPF9Y1dV_yGu-20" value="" style="shape=tableRow;horizontal=0;startSize=0;swimlaneHead=0;swimlaneBody=0;fillColor=none;collapsible=0;dropTarget=0;points=[[0,0.5],[1,0.5]];portConstraint=eastwest;top=0;left=0;right=0;bottom=1;" vertex="1" parent="5o4xbBL1ZPF9Y1dV_yGu-19">
          <mxGeometry y="30" width="180" height="80" as="geometry" />
        </mxCell>
        <mxCell id="5o4xbBL1ZPF9Y1dV_yGu-21" value="PK" style="shape=partialRectangle;connectable=0;fillColor=none;top=0;left=0;bottom=0;right=0;fontStyle=1;overflow=hidden;whiteSpace=wrap;html=1;" vertex="1" parent="5o4xbBL1ZPF9Y1dV_yGu-20">
          <mxGeometry width="30" height="80" as="geometry">
            <mxRectangle width="30" height="80" as="alternateBounds" />
          </mxGeometry>
        </mxCell>
        <mxCell id="5o4xbBL1ZPF9Y1dV_yGu-22" value="id_usuario&lt;br&gt;&lt;br&gt;email&lt;br&gt;&lt;br&gt;nombre_usuario" style="shape=partialRectangle;connectable=0;fillColor=none;top=0;left=0;bottom=0;right=0;align=left;spacingLeft=6;fontStyle=5;overflow=hidden;whiteSpace=wrap;html=1;" vertex="1" parent="5o4xbBL1ZPF9Y1dV_yGu-20">
          <mxGeometry x="30" width="150" height="80" as="geometry">
            <mxRectangle width="150" height="80" as="alternateBounds" />
          </mxGeometry>
        </mxCell>
        <mxCell id="5o4xbBL1ZPF9Y1dV_yGu-23" value="" style="shape=tableRow;horizontal=0;startSize=0;swimlaneHead=0;swimlaneBody=0;fillColor=none;collapsible=0;dropTarget=0;points=[[0,0.5],[1,0.5]];portConstraint=eastwest;top=0;left=0;right=0;bottom=0;" vertex="1" parent="5o4xbBL1ZPF9Y1dV_yGu-19">
          <mxGeometry y="110" width="180" height="20" as="geometry" />
        </mxCell>
        <mxCell id="5o4xbBL1ZPF9Y1dV_yGu-24" value="" style="shape=partialRectangle;connectable=0;fillColor=none;top=0;left=0;bottom=0;right=0;editable=1;overflow=hidden;whiteSpace=wrap;html=1;" vertex="1" parent="5o4xbBL1ZPF9Y1dV_yGu-23">
          <mxGeometry width="30" height="20" as="geometry">
            <mxRectangle width="30" height="20" as="alternateBounds" />
          </mxGeometry>
        </mxCell>
        <mxCell id="5o4xbBL1ZPF9Y1dV_yGu-25" value="nombre" style="shape=partialRectangle;connectable=0;fillColor=none;top=0;left=0;bottom=0;right=0;align=left;spacingLeft=6;overflow=hidden;whiteSpace=wrap;html=1;" vertex="1" parent="5o4xbBL1ZPF9Y1dV_yGu-23">
          <mxGeometry x="30" width="150" height="20" as="geometry">
            <mxRectangle width="150" height="20" as="alternateBounds" />
          </mxGeometry>
        </mxCell>
        <mxCell id="5o4xbBL1ZPF9Y1dV_yGu-26" value="" style="shape=tableRow;horizontal=0;startSize=0;swimlaneHead=0;swimlaneBody=0;fillColor=none;collapsible=0;dropTarget=0;points=[[0,0.5],[1,0.5]];portConstraint=eastwest;top=0;left=0;right=0;bottom=0;" vertex="1" parent="5o4xbBL1ZPF9Y1dV_yGu-19">
          <mxGeometry y="130" width="180" height="30" as="geometry" />
        </mxCell>
        <mxCell id="5o4xbBL1ZPF9Y1dV_yGu-27" value="" style="shape=partialRectangle;connectable=0;fillColor=none;top=0;left=0;bottom=0;right=0;editable=1;overflow=hidden;whiteSpace=wrap;html=1;" vertex="1" parent="5o4xbBL1ZPF9Y1dV_yGu-26">
          <mxGeometry width="30" height="30" as="geometry">
            <mxRectangle width="30" height="30" as="alternateBounds" />
          </mxGeometry>
        </mxCell>
        <mxCell id="5o4xbBL1ZPF9Y1dV_yGu-28" value="apellido" style="shape=partialRectangle;connectable=0;fillColor=none;top=0;left=0;bottom=0;right=0;align=left;spacingLeft=6;overflow=hidden;whiteSpace=wrap;html=1;" vertex="1" parent="5o4xbBL1ZPF9Y1dV_yGu-26">
          <mxGeometry x="30" width="150" height="30" as="geometry">
            <mxRectangle width="150" height="30" as="alternateBounds" />
          </mxGeometry>
        </mxCell>
        <mxCell id="5o4xbBL1ZPF9Y1dV_yGu-29" value="" style="shape=tableRow;horizontal=0;startSize=0;swimlaneHead=0;swimlaneBody=0;fillColor=none;collapsible=0;dropTarget=0;points=[[0,0.5],[1,0.5]];portConstraint=eastwest;top=0;left=0;right=0;bottom=0;" vertex="1" parent="5o4xbBL1ZPF9Y1dV_yGu-19">
          <mxGeometry y="160" width="180" height="30" as="geometry" />
        </mxCell>
        <mxCell id="5o4xbBL1ZPF9Y1dV_yGu-30" value="" style="shape=partialRectangle;connectable=0;fillColor=none;top=0;left=0;bottom=0;right=0;editable=1;overflow=hidden;whiteSpace=wrap;html=1;" vertex="1" parent="5o4xbBL1ZPF9Y1dV_yGu-29">
          <mxGeometry width="30" height="30" as="geometry">
            <mxRectangle width="30" height="30" as="alternateBounds" />
          </mxGeometry>
        </mxCell>
        <mxCell id="5o4xbBL1ZPF9Y1dV_yGu-31" value="contraseña" style="shape=partialRectangle;connectable=0;fillColor=none;top=0;left=0;bottom=0;right=0;align=left;spacingLeft=6;overflow=hidden;whiteSpace=wrap;html=1;" vertex="1" parent="5o4xbBL1ZPF9Y1dV_yGu-29">
          <mxGeometry x="30" width="150" height="30" as="geometry">
            <mxRectangle width="150" height="30" as="alternateBounds" />
          </mxGeometry>
        </mxCell>
        <mxCell id="5o4xbBL1ZPF9Y1dV_yGu-41" value="" style="shape=tableRow;horizontal=0;startSize=0;swimlaneHead=0;swimlaneBody=0;fillColor=none;collapsible=0;dropTarget=0;points=[[0,0.5],[1,0.5]];portConstraint=eastwest;top=0;left=0;right=0;bottom=0;" vertex="1" parent="5o4xbBL1ZPF9Y1dV_yGu-19">
          <mxGeometry y="190" width="180" height="30" as="geometry" />
        </mxCell>
        <mxCell id="5o4xbBL1ZPF9Y1dV_yGu-42" value="" style="shape=partialRectangle;connectable=0;fillColor=none;top=0;left=0;bottom=0;right=0;editable=1;overflow=hidden;" vertex="1" parent="5o4xbBL1ZPF9Y1dV_yGu-41">
          <mxGeometry width="30" height="30" as="geometry">
            <mxRectangle width="30" height="30" as="alternateBounds" />
          </mxGeometry>
        </mxCell>
        <mxCell id="5o4xbBL1ZPF9Y1dV_yGu-43" value="avatar" style="shape=partialRectangle;connectable=0;fillColor=none;top=0;left=0;bottom=0;right=0;align=left;spacingLeft=6;overflow=hidden;" vertex="1" parent="5o4xbBL1ZPF9Y1dV_yGu-41">
          <mxGeometry x="30" width="150" height="30" as="geometry">
            <mxRectangle width="150" height="30" as="alternateBounds" />
          </mxGeometry>
        </mxCell>
        <mxCell id="5o4xbBL1ZPF9Y1dV_yGu-47" value="" style="shape=tableRow;horizontal=0;startSize=0;swimlaneHead=0;swimlaneBody=0;fillColor=none;collapsible=0;dropTarget=0;points=[[0,0.5],[1,0.5]];portConstraint=eastwest;top=0;left=0;right=0;bottom=0;" vertex="1" parent="5o4xbBL1ZPF9Y1dV_yGu-19">
          <mxGeometry y="220" width="180" height="30" as="geometry" />
        </mxCell>
        <mxCell id="5o4xbBL1ZPF9Y1dV_yGu-48" value="" style="shape=partialRectangle;connectable=0;fillColor=none;top=0;left=0;bottom=0;right=0;editable=1;overflow=hidden;" vertex="1" parent="5o4xbBL1ZPF9Y1dV_yGu-47">
          <mxGeometry width="30" height="30" as="geometry">
            <mxRectangle width="30" height="30" as="alternateBounds" />
          </mxGeometry>
        </mxCell>
        <mxCell id="5o4xbBL1ZPF9Y1dV_yGu-49" value="fecha_registro" style="shape=partialRectangle;connectable=0;fillColor=none;top=0;left=0;bottom=0;right=0;align=left;spacingLeft=6;overflow=hidden;" vertex="1" parent="5o4xbBL1ZPF9Y1dV_yGu-47">
          <mxGeometry x="30" width="150" height="30" as="geometry">
            <mxRectangle width="150" height="30" as="alternateBounds" />
          </mxGeometry>
        </mxCell>
        <mxCell id="5o4xbBL1ZPF9Y1dV_yGu-32" value="" style="shape=tableRow;horizontal=0;startSize=0;swimlaneHead=0;swimlaneBody=0;fillColor=none;collapsible=0;dropTarget=0;points=[[0,0.5],[1,0.5]];portConstraint=eastwest;top=0;left=0;right=0;bottom=0;" vertex="1" parent="1">
          <mxGeometry x="150" y="80" width="186" height="30" as="geometry" />
        </mxCell>
        <mxCell id="5o4xbBL1ZPF9Y1dV_yGu-33" value="" style="shape=partialRectangle;connectable=0;fillColor=none;top=0;left=0;bottom=0;right=0;editable=1;overflow=hidden;whiteSpace=wrap;html=1;" vertex="1" parent="5o4xbBL1ZPF9Y1dV_yGu-32">
          <mxGeometry width="30" height="30" as="geometry">
            <mxRectangle width="30" height="30" as="alternateBounds" />
          </mxGeometry>
        </mxCell>
        <mxCell id="5o4xbBL1ZPF9Y1dV_yGu-44" value="" style="shape=tableRow;horizontal=0;startSize=0;swimlaneHead=0;swimlaneBody=0;fillColor=none;collapsible=0;dropTarget=0;points=[[0,0.5],[1,0.5]];portConstraint=eastwest;top=0;left=0;right=0;bottom=0;" vertex="1" parent="1">
          <mxGeometry x="160" y="90" width="186" height="30" as="geometry" />
        </mxCell>
        <mxCell id="5o4xbBL1ZPF9Y1dV_yGu-45" value="" style="shape=partialRectangle;connectable=0;fillColor=none;top=0;left=0;bottom=0;right=0;editable=1;overflow=hidden;whiteSpace=wrap;html=1;" vertex="1" parent="5o4xbBL1ZPF9Y1dV_yGu-44">
          <mxGeometry width="30" height="30" as="geometry">
            <mxRectangle width="30" height="30" as="alternateBounds" />
          </mxGeometry>
        </mxCell>
        <mxCell id="5o4xbBL1ZPF9Y1dV_yGu-64" value="" style="edgeStyle=entityRelationEdgeStyle;fontSize=12;html=1;endArrow=ERzeroToOne;endFill=1;rounded=0;entryX=-0.015;entryY=0.061;entryDx=0;entryDy=0;entryPerimeter=0;" edge="1" parent="1" target="5o4xbBL1ZPF9Y1dV_yGu-149">
          <mxGeometry width="100" height="100" relative="1" as="geometry">
            <mxPoint x="340" y="-90" as="sourcePoint" />
            <mxPoint x="400" y="-130" as="targetPoint" />
          </mxGeometry>
        </mxCell>
        <mxCell id="5o4xbBL1ZPF9Y1dV_yGu-109" value="" style="endArrow=none;html=1;rounded=0;" edge="1" parent="1">
          <mxGeometry width="50" height="50" relative="1" as="geometry">
            <mxPoint x="350" y="-80" as="sourcePoint" />
            <mxPoint x="350" y="-100" as="targetPoint" />
          </mxGeometry>
        </mxCell>
        <mxCell id="5o4xbBL1ZPF9Y1dV_yGu-110" value="" style="endArrow=none;html=1;rounded=0;" edge="1" parent="1">
          <mxGeometry width="50" height="50" relative="1" as="geometry">
            <mxPoint x="360" y="-100" as="sourcePoint" />
            <mxPoint x="360" y="-80" as="targetPoint" />
          </mxGeometry>
        </mxCell>
        <mxCell id="5o4xbBL1ZPF9Y1dV_yGu-111" value="" style="edgeStyle=entityRelationEdgeStyle;fontSize=12;html=1;endArrow=ERzeroToOne;startArrow=ERmandOne;rounded=0;exitX=1.006;exitY=-0.033;exitDx=0;exitDy=0;exitPerimeter=0;entryX=0;entryY=0.25;entryDx=0;entryDy=0;" edge="1" parent="1" source="5o4xbBL1ZPF9Y1dV_yGu-29" target="5o4xbBL1ZPF9Y1dV_yGu-178">
          <mxGeometry width="100" height="100" relative="1" as="geometry">
            <mxPoint x="343" y="54" as="sourcePoint" />
            <mxPoint x="400" y="130" as="targetPoint" />
          </mxGeometry>
        </mxCell>
        <mxCell id="5o4xbBL1ZPF9Y1dV_yGu-138" value="" style="shape=tableRow;horizontal=0;startSize=0;swimlaneHead=0;swimlaneBody=0;fillColor=none;collapsible=0;dropTarget=0;points=[[0,0.5],[1,0.5]];portConstraint=eastwest;top=0;left=0;right=0;bottom=0;html=1;" vertex="1" parent="1">
          <mxGeometry x="420" y="-60" width="180" height="30" as="geometry" />
        </mxCell>
        <mxCell id="5o4xbBL1ZPF9Y1dV_yGu-141" style="edgeStyle=orthogonalEdgeStyle;rounded=0;orthogonalLoop=1;jettySize=auto;html=1;exitX=1;exitY=0.5;exitDx=0;exitDy=0;" edge="1" parent="1" source="5o4xbBL1ZPF9Y1dV_yGu-138" target="5o4xbBL1ZPF9Y1dV_yGu-138">
          <mxGeometry relative="1" as="geometry" />
        </mxCell>
        <mxCell id="5o4xbBL1ZPF9Y1dV_yGu-149" value="Colaboradores" style="shape=table;startSize=30;container=1;collapsible=1;childLayout=tableLayout;fixedRows=1;rowLines=0;fontStyle=1;align=center;resizeLast=1;html=1;" vertex="1" parent="1">
          <mxGeometry x="440" y="-160" width="258.66" height="180" as="geometry" />
        </mxCell>
        <mxCell id="5o4xbBL1ZPF9Y1dV_yGu-150" value="" style="shape=tableRow;horizontal=0;startSize=0;swimlaneHead=0;swimlaneBody=0;fillColor=none;collapsible=0;dropTarget=0;points=[[0,0.5],[1,0.5]];portConstraint=eastwest;top=0;left=0;right=0;bottom=1;" vertex="1" parent="5o4xbBL1ZPF9Y1dV_yGu-149">
          <mxGeometry y="30" width="258.66" height="30" as="geometry" />
        </mxCell>
        <mxCell id="5o4xbBL1ZPF9Y1dV_yGu-151" value="PK" style="shape=partialRectangle;connectable=0;fillColor=none;top=0;left=0;bottom=0;right=0;fontStyle=1;overflow=hidden;whiteSpace=wrap;html=1;" vertex="1" parent="5o4xbBL1ZPF9Y1dV_yGu-150">
          <mxGeometry width="30" height="30" as="geometry">
            <mxRectangle width="30" height="30" as="alternateBounds" />
          </mxGeometry>
        </mxCell>
        <mxCell id="5o4xbBL1ZPF9Y1dV_yGu-152" value="id_colaboradores" style="shape=partialRectangle;connectable=0;fillColor=none;top=0;left=0;bottom=0;right=0;align=left;spacingLeft=6;fontStyle=5;overflow=hidden;whiteSpace=wrap;html=1;" vertex="1" parent="5o4xbBL1ZPF9Y1dV_yGu-150">
          <mxGeometry x="30" width="228.66000000000003" height="30" as="geometry">
            <mxRectangle width="228.66000000000003" height="30" as="alternateBounds" />
          </mxGeometry>
        </mxCell>
        <mxCell id="5o4xbBL1ZPF9Y1dV_yGu-153" value="" style="shape=tableRow;horizontal=0;startSize=0;swimlaneHead=0;swimlaneBody=0;fillColor=none;collapsible=0;dropTarget=0;points=[[0,0.5],[1,0.5]];portConstraint=eastwest;top=0;left=0;right=0;bottom=0;" vertex="1" parent="5o4xbBL1ZPF9Y1dV_yGu-149">
          <mxGeometry y="60" width="258.66" height="30" as="geometry" />
        </mxCell>
        <mxCell id="5o4xbBL1ZPF9Y1dV_yGu-154" value="" style="shape=partialRectangle;connectable=0;fillColor=none;top=0;left=0;bottom=0;right=0;editable=1;overflow=hidden;whiteSpace=wrap;html=1;" vertex="1" parent="5o4xbBL1ZPF9Y1dV_yGu-153">
          <mxGeometry width="30" height="30" as="geometry">
            <mxRectangle width="30" height="30" as="alternateBounds" />
          </mxGeometry>
        </mxCell>
        <mxCell id="5o4xbBL1ZPF9Y1dV_yGu-155" value="telefono" style="shape=partialRectangle;connectable=0;fillColor=none;top=0;left=0;bottom=0;right=0;align=left;spacingLeft=6;overflow=hidden;whiteSpace=wrap;html=1;" vertex="1" parent="5o4xbBL1ZPF9Y1dV_yGu-153">
          <mxGeometry x="30" width="228.66000000000003" height="30" as="geometry">
            <mxRectangle width="228.66000000000003" height="30" as="alternateBounds" />
          </mxGeometry>
        </mxCell>
        <mxCell id="5o4xbBL1ZPF9Y1dV_yGu-175" value="" style="shape=tableRow;horizontal=0;startSize=0;swimlaneHead=0;swimlaneBody=0;fillColor=none;collapsible=0;dropTarget=0;points=[[0,0.5],[1,0.5]];portConstraint=eastwest;top=0;left=0;right=0;bottom=0;" vertex="1" parent="5o4xbBL1ZPF9Y1dV_yGu-149">
          <mxGeometry y="90" width="258.66" height="30" as="geometry" />
        </mxCell>
        <mxCell id="5o4xbBL1ZPF9Y1dV_yGu-176" value="" style="shape=partialRectangle;connectable=0;fillColor=none;top=0;left=0;bottom=0;right=0;editable=1;overflow=hidden;" vertex="1" parent="5o4xbBL1ZPF9Y1dV_yGu-175">
          <mxGeometry width="30" height="30" as="geometry">
            <mxRectangle width="30" height="30" as="alternateBounds" />
          </mxGeometry>
        </mxCell>
        <mxCell id="5o4xbBL1ZPF9Y1dV_yGu-177" value="estado" style="shape=partialRectangle;connectable=0;fillColor=none;top=0;left=0;bottom=0;right=0;align=left;spacingLeft=6;overflow=hidden;" vertex="1" parent="5o4xbBL1ZPF9Y1dV_yGu-175">
          <mxGeometry x="30" width="228.66000000000003" height="30" as="geometry">
            <mxRectangle width="228.66000000000003" height="30" as="alternateBounds" />
          </mxGeometry>
        </mxCell>
        <mxCell id="5o4xbBL1ZPF9Y1dV_yGu-156" value="" style="shape=tableRow;horizontal=0;startSize=0;swimlaneHead=0;swimlaneBody=0;fillColor=none;collapsible=0;dropTarget=0;points=[[0,0.5],[1,0.5]];portConstraint=eastwest;top=0;left=0;right=0;bottom=0;" vertex="1" parent="5o4xbBL1ZPF9Y1dV_yGu-149">
          <mxGeometry y="120" width="258.66" height="30" as="geometry" />
        </mxCell>
        <mxCell id="5o4xbBL1ZPF9Y1dV_yGu-157" value="" style="shape=partialRectangle;connectable=0;fillColor=none;top=0;left=0;bottom=0;right=0;editable=1;overflow=hidden;whiteSpace=wrap;html=1;" vertex="1" parent="5o4xbBL1ZPF9Y1dV_yGu-156">
          <mxGeometry width="30" height="30" as="geometry">
            <mxRectangle width="30" height="30" as="alternateBounds" />
          </mxGeometry>
        </mxCell>
        <mxCell id="5o4xbBL1ZPF9Y1dV_yGu-158" value="estado_inactivo" style="shape=partialRectangle;connectable=0;fillColor=none;top=0;left=0;bottom=0;right=0;align=left;spacingLeft=6;overflow=hidden;whiteSpace=wrap;html=1;" vertex="1" parent="5o4xbBL1ZPF9Y1dV_yGu-156">
          <mxGeometry x="30" width="228.66000000000003" height="30" as="geometry">
            <mxRectangle width="228.66000000000003" height="30" as="alternateBounds" />
          </mxGeometry>
        </mxCell>
        <mxCell id="5o4xbBL1ZPF9Y1dV_yGu-159" value="" style="shape=tableRow;horizontal=0;startSize=0;swimlaneHead=0;swimlaneBody=0;fillColor=none;collapsible=0;dropTarget=0;points=[[0,0.5],[1,0.5]];portConstraint=eastwest;top=0;left=0;right=0;bottom=0;" vertex="1" parent="5o4xbBL1ZPF9Y1dV_yGu-149">
          <mxGeometry y="150" width="258.66" height="30" as="geometry" />
        </mxCell>
        <mxCell id="5o4xbBL1ZPF9Y1dV_yGu-160" value="" style="shape=partialRectangle;connectable=0;fillColor=none;top=0;left=0;bottom=0;right=0;editable=1;overflow=hidden;whiteSpace=wrap;html=1;" vertex="1" parent="5o4xbBL1ZPF9Y1dV_yGu-159">
          <mxGeometry width="30" height="30" as="geometry">
            <mxRectangle width="30" height="30" as="alternateBounds" />
          </mxGeometry>
        </mxCell>
        <mxCell id="5o4xbBL1ZPF9Y1dV_yGu-161" value="estado_activo" style="shape=partialRectangle;connectable=0;fillColor=none;top=0;left=0;bottom=0;right=0;align=left;spacingLeft=6;overflow=hidden;whiteSpace=wrap;html=1;" vertex="1" parent="5o4xbBL1ZPF9Y1dV_yGu-159">
          <mxGeometry x="30" width="228.66000000000003" height="30" as="geometry">
            <mxRectangle width="228.66000000000003" height="30" as="alternateBounds" />
          </mxGeometry>
        </mxCell>
        <mxCell id="5o4xbBL1ZPF9Y1dV_yGu-178" value="publico_registrado" style="shape=table;startSize=30;container=1;collapsible=1;childLayout=tableLayout;fixedRows=1;rowLines=0;fontStyle=1;align=center;resizeLast=1;html=1;" vertex="1" parent="1">
          <mxGeometry x="403.7" y="75" width="162.5" height="60" as="geometry" />
        </mxCell>
        <mxCell id="5o4xbBL1ZPF9Y1dV_yGu-179" value="" style="shape=tableRow;horizontal=0;startSize=0;swimlaneHead=0;swimlaneBody=0;fillColor=none;collapsible=0;dropTarget=0;points=[[0,0.5],[1,0.5]];portConstraint=eastwest;top=0;left=0;right=0;bottom=1;" vertex="1" parent="5o4xbBL1ZPF9Y1dV_yGu-178">
          <mxGeometry y="30" width="162.5" height="30" as="geometry" />
        </mxCell>
        <mxCell id="5o4xbBL1ZPF9Y1dV_yGu-180" value="PK" style="shape=partialRectangle;connectable=0;fillColor=none;top=0;left=0;bottom=0;right=0;fontStyle=1;overflow=hidden;whiteSpace=wrap;html=1;" vertex="1" parent="5o4xbBL1ZPF9Y1dV_yGu-179">
          <mxGeometry width="30" height="30" as="geometry">
            <mxRectangle width="30" height="30" as="alternateBounds" />
          </mxGeometry>
        </mxCell>
        <mxCell id="5o4xbBL1ZPF9Y1dV_yGu-181" value="id_publico" style="shape=partialRectangle;connectable=0;fillColor=none;top=0;left=0;bottom=0;right=0;align=left;spacingLeft=6;fontStyle=5;overflow=hidden;whiteSpace=wrap;html=1;" vertex="1" parent="5o4xbBL1ZPF9Y1dV_yGu-179">
          <mxGeometry x="30" width="132.5" height="30" as="geometry">
            <mxRectangle width="132.5" height="30" as="alternateBounds" />
          </mxGeometry>
        </mxCell>
        <mxCell id="5o4xbBL1ZPF9Y1dV_yGu-191" value="comenta" style="shape=table;startSize=30;container=1;collapsible=1;childLayout=tableLayout;fixedRows=1;rowLines=0;fontStyle=1;align=center;resizeLast=1;html=1;" vertex="1" parent="1">
          <mxGeometry x="623.66" y="100" width="180" height="90" as="geometry" />
        </mxCell>
        <mxCell id="5o4xbBL1ZPF9Y1dV_yGu-192" value="" style="shape=tableRow;horizontal=0;startSize=0;swimlaneHead=0;swimlaneBody=0;fillColor=none;collapsible=0;dropTarget=0;points=[[0,0.5],[1,0.5]];portConstraint=eastwest;top=0;left=0;right=0;bottom=1;" vertex="1" parent="5o4xbBL1ZPF9Y1dV_yGu-191">
          <mxGeometry y="30" width="180" height="30" as="geometry" />
        </mxCell>
        <mxCell id="5o4xbBL1ZPF9Y1dV_yGu-193" value="PK" style="shape=partialRectangle;connectable=0;fillColor=none;top=0;left=0;bottom=0;right=0;fontStyle=1;overflow=hidden;whiteSpace=wrap;html=1;" vertex="1" parent="5o4xbBL1ZPF9Y1dV_yGu-192">
          <mxGeometry width="30" height="30" as="geometry">
            <mxRectangle width="30" height="30" as="alternateBounds" />
          </mxGeometry>
        </mxCell>
        <mxCell id="5o4xbBL1ZPF9Y1dV_yGu-194" value="id_comentario" style="shape=partialRectangle;connectable=0;fillColor=none;top=0;left=0;bottom=0;right=0;align=left;spacingLeft=6;fontStyle=5;overflow=hidden;whiteSpace=wrap;html=1;" vertex="1" parent="5o4xbBL1ZPF9Y1dV_yGu-192">
          <mxGeometry x="30" width="150" height="30" as="geometry">
            <mxRectangle width="150" height="30" as="alternateBounds" />
          </mxGeometry>
        </mxCell>
        <mxCell id="5o4xbBL1ZPF9Y1dV_yGu-195" value="" style="shape=tableRow;horizontal=0;startSize=0;swimlaneHead=0;swimlaneBody=0;fillColor=none;collapsible=0;dropTarget=0;points=[[0,0.5],[1,0.5]];portConstraint=eastwest;top=0;left=0;right=0;bottom=0;" vertex="1" parent="5o4xbBL1ZPF9Y1dV_yGu-191">
          <mxGeometry y="60" width="180" height="30" as="geometry" />
        </mxCell>
        <mxCell id="5o4xbBL1ZPF9Y1dV_yGu-196" value="" style="shape=partialRectangle;connectable=0;fillColor=none;top=0;left=0;bottom=0;right=0;editable=1;overflow=hidden;whiteSpace=wrap;html=1;" vertex="1" parent="5o4xbBL1ZPF9Y1dV_yGu-195">
          <mxGeometry width="30" height="30" as="geometry">
            <mxRectangle width="30" height="30" as="alternateBounds" />
          </mxGeometry>
        </mxCell>
        <mxCell id="5o4xbBL1ZPF9Y1dV_yGu-197" value="texto" style="shape=partialRectangle;connectable=0;fillColor=none;top=0;left=0;bottom=0;right=0;align=left;spacingLeft=6;overflow=hidden;whiteSpace=wrap;html=1;" vertex="1" parent="5o4xbBL1ZPF9Y1dV_yGu-195">
          <mxGeometry x="30" width="150" height="30" as="geometry">
            <mxRectangle width="150" height="30" as="alternateBounds" />
          </mxGeometry>
        </mxCell>
        <mxCell id="5o4xbBL1ZPF9Y1dV_yGu-204" value="Articulos" style="shape=table;startSize=30;container=1;collapsible=1;childLayout=tableLayout;fixedRows=1;rowLines=0;fontStyle=1;align=center;resizeLast=1;html=1;" vertex="1" parent="1">
          <mxGeometry x="870" y="-80" width="180" height="210" as="geometry" />
        </mxCell>
        <mxCell id="5o4xbBL1ZPF9Y1dV_yGu-205" value="" style="shape=tableRow;horizontal=0;startSize=0;swimlaneHead=0;swimlaneBody=0;fillColor=none;collapsible=0;dropTarget=0;points=[[0,0.5],[1,0.5]];portConstraint=eastwest;top=0;left=0;right=0;bottom=1;" vertex="1" parent="5o4xbBL1ZPF9Y1dV_yGu-204">
          <mxGeometry y="30" width="180" height="30" as="geometry" />
        </mxCell>
        <mxCell id="5o4xbBL1ZPF9Y1dV_yGu-206" value="PK" style="shape=partialRectangle;connectable=0;fillColor=none;top=0;left=0;bottom=0;right=0;fontStyle=1;overflow=hidden;whiteSpace=wrap;html=1;" vertex="1" parent="5o4xbBL1ZPF9Y1dV_yGu-205">
          <mxGeometry width="30" height="30" as="geometry">
            <mxRectangle width="30" height="30" as="alternateBounds" />
          </mxGeometry>
        </mxCell>
        <mxCell id="5o4xbBL1ZPF9Y1dV_yGu-207" value="imagen" style="shape=partialRectangle;connectable=0;fillColor=none;top=0;left=0;bottom=0;right=0;align=left;spacingLeft=6;fontStyle=5;overflow=hidden;whiteSpace=wrap;html=1;" vertex="1" parent="5o4xbBL1ZPF9Y1dV_yGu-205">
          <mxGeometry x="30" width="150" height="30" as="geometry">
            <mxRectangle width="150" height="30" as="alternateBounds" />
          </mxGeometry>
        </mxCell>
        <mxCell id="5o4xbBL1ZPF9Y1dV_yGu-208" value="" style="shape=tableRow;horizontal=0;startSize=0;swimlaneHead=0;swimlaneBody=0;fillColor=none;collapsible=0;dropTarget=0;points=[[0,0.5],[1,0.5]];portConstraint=eastwest;top=0;left=0;right=0;bottom=0;" vertex="1" parent="5o4xbBL1ZPF9Y1dV_yGu-204">
          <mxGeometry y="60" width="180" height="30" as="geometry" />
        </mxCell>
        <mxCell id="5o4xbBL1ZPF9Y1dV_yGu-209" value="" style="shape=partialRectangle;connectable=0;fillColor=none;top=0;left=0;bottom=0;right=0;editable=1;overflow=hidden;whiteSpace=wrap;html=1;" vertex="1" parent="5o4xbBL1ZPF9Y1dV_yGu-208">
          <mxGeometry width="30" height="30" as="geometry">
            <mxRectangle width="30" height="30" as="alternateBounds" />
          </mxGeometry>
        </mxCell>
        <mxCell id="5o4xbBL1ZPF9Y1dV_yGu-210" value="contenido_completo" style="shape=partialRectangle;connectable=0;fillColor=none;top=0;left=0;bottom=0;right=0;align=left;spacingLeft=6;overflow=hidden;whiteSpace=wrap;html=1;" vertex="1" parent="5o4xbBL1ZPF9Y1dV_yGu-208">
          <mxGeometry x="30" width="150" height="30" as="geometry">
            <mxRectangle width="150" height="30" as="alternateBounds" />
          </mxGeometry>
        </mxCell>
        <mxCell id="5o4xbBL1ZPF9Y1dV_yGu-211" value="" style="shape=tableRow;horizontal=0;startSize=0;swimlaneHead=0;swimlaneBody=0;fillColor=none;collapsible=0;dropTarget=0;points=[[0,0.5],[1,0.5]];portConstraint=eastwest;top=0;left=0;right=0;bottom=0;" vertex="1" parent="5o4xbBL1ZPF9Y1dV_yGu-204">
          <mxGeometry y="90" width="180" height="30" as="geometry" />
        </mxCell>
        <mxCell id="5o4xbBL1ZPF9Y1dV_yGu-212" value="" style="shape=partialRectangle;connectable=0;fillColor=none;top=0;left=0;bottom=0;right=0;editable=1;overflow=hidden;whiteSpace=wrap;html=1;" vertex="1" parent="5o4xbBL1ZPF9Y1dV_yGu-211">
          <mxGeometry width="30" height="30" as="geometry">
            <mxRectangle width="30" height="30" as="alternateBounds" />
          </mxGeometry>
        </mxCell>
        <mxCell id="5o4xbBL1ZPF9Y1dV_yGu-213" value="contenido_breve" style="shape=partialRectangle;connectable=0;fillColor=none;top=0;left=0;bottom=0;right=0;align=left;spacingLeft=6;overflow=hidden;whiteSpace=wrap;html=1;" vertex="1" parent="5o4xbBL1ZPF9Y1dV_yGu-211">
          <mxGeometry x="30" width="150" height="30" as="geometry">
            <mxRectangle width="150" height="30" as="alternateBounds" />
          </mxGeometry>
        </mxCell>
        <mxCell id="5o4xbBL1ZPF9Y1dV_yGu-214" value="" style="shape=tableRow;horizontal=0;startSize=0;swimlaneHead=0;swimlaneBody=0;fillColor=none;collapsible=0;dropTarget=0;points=[[0,0.5],[1,0.5]];portConstraint=eastwest;top=0;left=0;right=0;bottom=0;" vertex="1" parent="5o4xbBL1ZPF9Y1dV_yGu-204">
          <mxGeometry y="120" width="180" height="30" as="geometry" />
        </mxCell>
        <mxCell id="5o4xbBL1ZPF9Y1dV_yGu-215" value="" style="shape=partialRectangle;connectable=0;fillColor=none;top=0;left=0;bottom=0;right=0;editable=1;overflow=hidden;whiteSpace=wrap;html=1;" vertex="1" parent="5o4xbBL1ZPF9Y1dV_yGu-214">
          <mxGeometry width="30" height="30" as="geometry">
            <mxRectangle width="30" height="30" as="alternateBounds" />
          </mxGeometry>
        </mxCell>
        <mxCell id="5o4xbBL1ZPF9Y1dV_yGu-216" value="titulo" style="shape=partialRectangle;connectable=0;fillColor=none;top=0;left=0;bottom=0;right=0;align=left;spacingLeft=6;overflow=hidden;whiteSpace=wrap;html=1;" vertex="1" parent="5o4xbBL1ZPF9Y1dV_yGu-214">
          <mxGeometry x="30" width="150" height="30" as="geometry">
            <mxRectangle width="150" height="30" as="alternateBounds" />
          </mxGeometry>
        </mxCell>
        <mxCell id="5o4xbBL1ZPF9Y1dV_yGu-226" value="" style="shape=tableRow;horizontal=0;startSize=0;swimlaneHead=0;swimlaneBody=0;fillColor=none;collapsible=0;dropTarget=0;points=[[0,0.5],[1,0.5]];portConstraint=eastwest;top=0;left=0;right=0;bottom=0;" vertex="1" parent="5o4xbBL1ZPF9Y1dV_yGu-204">
          <mxGeometry y="150" width="180" height="30" as="geometry" />
        </mxCell>
        <mxCell id="5o4xbBL1ZPF9Y1dV_yGu-227" value="" style="shape=partialRectangle;connectable=0;fillColor=none;top=0;left=0;bottom=0;right=0;editable=1;overflow=hidden;" vertex="1" parent="5o4xbBL1ZPF9Y1dV_yGu-226">
          <mxGeometry width="30" height="30" as="geometry">
            <mxRectangle width="30" height="30" as="alternateBounds" />
          </mxGeometry>
        </mxCell>
        <mxCell id="5o4xbBL1ZPF9Y1dV_yGu-228" value="fecha_publicacion" style="shape=partialRectangle;connectable=0;fillColor=none;top=0;left=0;bottom=0;right=0;align=left;spacingLeft=6;overflow=hidden;" vertex="1" parent="5o4xbBL1ZPF9Y1dV_yGu-226">
          <mxGeometry x="30" width="150" height="30" as="geometry">
            <mxRectangle width="150" height="30" as="alternateBounds" />
          </mxGeometry>
        </mxCell>
        <mxCell id="5o4xbBL1ZPF9Y1dV_yGu-218" value="" style="shape=tableRow;horizontal=0;startSize=0;swimlaneHead=0;swimlaneBody=0;fillColor=none;collapsible=0;dropTarget=0;points=[[0,0.5],[1,0.5]];portConstraint=eastwest;top=0;left=0;right=0;bottom=0;" vertex="1" parent="5o4xbBL1ZPF9Y1dV_yGu-204">
          <mxGeometry y="180" width="180" height="30" as="geometry" />
        </mxCell>
        <mxCell id="5o4xbBL1ZPF9Y1dV_yGu-219" value="" style="shape=partialRectangle;connectable=0;fillColor=none;top=0;left=0;bottom=0;right=0;editable=1;overflow=hidden;" vertex="1" parent="5o4xbBL1ZPF9Y1dV_yGu-218">
          <mxGeometry width="30" height="30" as="geometry">
            <mxRectangle width="30" height="30" as="alternateBounds" />
          </mxGeometry>
        </mxCell>
        <mxCell id="5o4xbBL1ZPF9Y1dV_yGu-220" value="estado" style="shape=partialRectangle;connectable=0;fillColor=none;top=0;left=0;bottom=0;right=0;align=left;spacingLeft=6;overflow=hidden;" vertex="1" parent="5o4xbBL1ZPF9Y1dV_yGu-218">
          <mxGeometry x="30" width="150" height="30" as="geometry">
            <mxRectangle width="150" height="30" as="alternateBounds" />
          </mxGeometry>
        </mxCell>
        <mxCell id="5o4xbBL1ZPF9Y1dV_yGu-229" value="" style="edgeStyle=entityRelationEdgeStyle;fontSize=12;html=1;endArrow=ERzeroToMany;startArrow=ERmandOne;rounded=0;entryX=-0.028;entryY=0.062;entryDx=0;entryDy=0;entryPerimeter=0;exitX=1.025;exitY=0.094;exitDx=0;exitDy=0;exitPerimeter=0;" edge="1" parent="1" source="5o4xbBL1ZPF9Y1dV_yGu-149" target="5o4xbBL1ZPF9Y1dV_yGu-204">
          <mxGeometry width="100" height="100" relative="1" as="geometry">
            <mxPoint x="660" y="-130" as="sourcePoint" />
            <mxPoint x="670" y="-80" as="targetPoint" />
          </mxGeometry>
        </mxCell>
        <mxCell id="5o4xbBL1ZPF9Y1dV_yGu-231" value="" style="edgeStyle=entityRelationEdgeStyle;fontSize=12;html=1;endArrow=ERzeroToMany;endFill=1;startArrow=ERzeroToMany;rounded=0;entryX=0;entryY=0.25;entryDx=0;entryDy=0;exitX=1;exitY=0.25;exitDx=0;exitDy=0;" edge="1" parent="1" source="5o4xbBL1ZPF9Y1dV_yGu-178" target="5o4xbBL1ZPF9Y1dV_yGu-191">
          <mxGeometry width="100" height="100" relative="1" as="geometry">
            <mxPoint x="498" y="200" as="sourcePoint" />
            <mxPoint x="635" y="180" as="targetPoint" />
          </mxGeometry>
        </mxCell>
        <mxCell id="5o4xbBL1ZPF9Y1dV_yGu-233" value="" style="edgeStyle=entityRelationEdgeStyle;fontSize=12;html=1;endArrow=ERzeroToMany;endFill=1;startArrow=ERzeroToMany;rounded=0;exitX=1;exitY=0.25;exitDx=0;exitDy=0;entryX=-0.022;entryY=0.033;entryDx=0;entryDy=0;entryPerimeter=0;" edge="1" parent="1" source="5o4xbBL1ZPF9Y1dV_yGu-191" target="5o4xbBL1ZPF9Y1dV_yGu-214">
          <mxGeometry width="100" height="100" relative="1" as="geometry">
            <mxPoint x="590" y="200" as="sourcePoint" />
            <mxPoint x="760" y="-10" as="targetPoint" />
          </mxGeometry>
        </mxCell>
        <mxCell id="5o4xbBL1ZPF9Y1dV_yGu-234" value="Categorias" style="shape=table;startSize=30;container=1;collapsible=1;childLayout=tableLayout;fixedRows=1;rowLines=0;fontStyle=1;align=center;resizeLast=1;html=1;" vertex="1" parent="1">
          <mxGeometry x="1120" y="10" width="180" height="150" as="geometry" />
        </mxCell>
        <mxCell id="5o4xbBL1ZPF9Y1dV_yGu-235" value="" style="shape=tableRow;horizontal=0;startSize=0;swimlaneHead=0;swimlaneBody=0;fillColor=none;collapsible=0;dropTarget=0;points=[[0,0.5],[1,0.5]];portConstraint=eastwest;top=0;left=0;right=0;bottom=1;" vertex="1" parent="5o4xbBL1ZPF9Y1dV_yGu-234">
          <mxGeometry y="30" width="180" height="30" as="geometry" />
        </mxCell>
        <mxCell id="5o4xbBL1ZPF9Y1dV_yGu-236" value="PK" style="shape=partialRectangle;connectable=0;fillColor=none;top=0;left=0;bottom=0;right=0;fontStyle=1;overflow=hidden;whiteSpace=wrap;html=1;" vertex="1" parent="5o4xbBL1ZPF9Y1dV_yGu-235">
          <mxGeometry width="30" height="30" as="geometry">
            <mxRectangle width="30" height="30" as="alternateBounds" />
          </mxGeometry>
        </mxCell>
        <mxCell id="5o4xbBL1ZPF9Y1dV_yGu-237" value="nombre" style="shape=partialRectangle;connectable=0;fillColor=none;top=0;left=0;bottom=0;right=0;align=left;spacingLeft=6;fontStyle=5;overflow=hidden;whiteSpace=wrap;html=1;" vertex="1" parent="5o4xbBL1ZPF9Y1dV_yGu-235">
          <mxGeometry x="30" width="150" height="30" as="geometry">
            <mxRectangle width="150" height="30" as="alternateBounds" />
          </mxGeometry>
        </mxCell>
        <mxCell id="5o4xbBL1ZPF9Y1dV_yGu-238" value="" style="shape=tableRow;horizontal=0;startSize=0;swimlaneHead=0;swimlaneBody=0;fillColor=none;collapsible=0;dropTarget=0;points=[[0,0.5],[1,0.5]];portConstraint=eastwest;top=0;left=0;right=0;bottom=0;" vertex="1" parent="5o4xbBL1ZPF9Y1dV_yGu-234">
          <mxGeometry y="60" width="180" height="30" as="geometry" />
        </mxCell>
        <mxCell id="5o4xbBL1ZPF9Y1dV_yGu-239" value="" style="shape=partialRectangle;connectable=0;fillColor=none;top=0;left=0;bottom=0;right=0;editable=1;overflow=hidden;whiteSpace=wrap;html=1;" vertex="1" parent="5o4xbBL1ZPF9Y1dV_yGu-238">
          <mxGeometry width="30" height="30" as="geometry">
            <mxRectangle width="30" height="30" as="alternateBounds" />
          </mxGeometry>
        </mxCell>
        <mxCell id="5o4xbBL1ZPF9Y1dV_yGu-240" value="descripcion" style="shape=partialRectangle;connectable=0;fillColor=none;top=0;left=0;bottom=0;right=0;align=left;spacingLeft=6;overflow=hidden;whiteSpace=wrap;html=1;" vertex="1" parent="5o4xbBL1ZPF9Y1dV_yGu-238">
          <mxGeometry x="30" width="150" height="30" as="geometry">
            <mxRectangle width="150" height="30" as="alternateBounds" />
          </mxGeometry>
        </mxCell>
        <mxCell id="5o4xbBL1ZPF9Y1dV_yGu-241" value="" style="shape=tableRow;horizontal=0;startSize=0;swimlaneHead=0;swimlaneBody=0;fillColor=none;collapsible=0;dropTarget=0;points=[[0,0.5],[1,0.5]];portConstraint=eastwest;top=0;left=0;right=0;bottom=0;" vertex="1" parent="5o4xbBL1ZPF9Y1dV_yGu-234">
          <mxGeometry y="90" width="180" height="30" as="geometry" />
        </mxCell>
        <mxCell id="5o4xbBL1ZPF9Y1dV_yGu-242" value="" style="shape=partialRectangle;connectable=0;fillColor=none;top=0;left=0;bottom=0;right=0;editable=1;overflow=hidden;whiteSpace=wrap;html=1;" vertex="1" parent="5o4xbBL1ZPF9Y1dV_yGu-241">
          <mxGeometry width="30" height="30" as="geometry">
            <mxRectangle width="30" height="30" as="alternateBounds" />
          </mxGeometry>
        </mxCell>
        <mxCell id="5o4xbBL1ZPF9Y1dV_yGu-243" value="imagen" style="shape=partialRectangle;connectable=0;fillColor=none;top=0;left=0;bottom=0;right=0;align=left;spacingLeft=6;overflow=hidden;whiteSpace=wrap;html=1;" vertex="1" parent="5o4xbBL1ZPF9Y1dV_yGu-241">
          <mxGeometry x="30" width="150" height="30" as="geometry">
            <mxRectangle width="150" height="30" as="alternateBounds" />
          </mxGeometry>
        </mxCell>
        <mxCell id="5o4xbBL1ZPF9Y1dV_yGu-244" value="" style="shape=tableRow;horizontal=0;startSize=0;swimlaneHead=0;swimlaneBody=0;fillColor=none;collapsible=0;dropTarget=0;points=[[0,0.5],[1,0.5]];portConstraint=eastwest;top=0;left=0;right=0;bottom=0;" vertex="1" parent="5o4xbBL1ZPF9Y1dV_yGu-234">
          <mxGeometry y="120" width="180" height="30" as="geometry" />
        </mxCell>
        <mxCell id="5o4xbBL1ZPF9Y1dV_yGu-245" value="" style="shape=partialRectangle;connectable=0;fillColor=none;top=0;left=0;bottom=0;right=0;editable=1;overflow=hidden;whiteSpace=wrap;html=1;" vertex="1" parent="5o4xbBL1ZPF9Y1dV_yGu-244">
          <mxGeometry width="30" height="30" as="geometry">
            <mxRectangle width="30" height="30" as="alternateBounds" />
          </mxGeometry>
        </mxCell>
        <mxCell id="5o4xbBL1ZPF9Y1dV_yGu-246" value="estado" style="shape=partialRectangle;connectable=0;fillColor=none;top=0;left=0;bottom=0;right=0;align=left;spacingLeft=6;overflow=hidden;whiteSpace=wrap;html=1;" vertex="1" parent="5o4xbBL1ZPF9Y1dV_yGu-244">
          <mxGeometry x="30" width="150" height="30" as="geometry">
            <mxRectangle width="150" height="30" as="alternateBounds" />
          </mxGeometry>
        </mxCell>
        <mxCell id="5o4xbBL1ZPF9Y1dV_yGu-248" value="sub categorias" style="swimlane;childLayout=stackLayout;horizontal=1;startSize=50;horizontalStack=0;rounded=1;fontSize=14;fontStyle=0;strokeWidth=2;resizeParent=0;resizeLast=1;shadow=0;dashed=0;align=center;arcSize=4;whiteSpace=wrap;html=1;" vertex="1" parent="1">
          <mxGeometry x="1400" y="-110" width="160" height="120" as="geometry" />
        </mxCell>
        <mxCell id="5o4xbBL1ZPF9Y1dV_yGu-250" value="" style="edgeStyle=entityRelationEdgeStyle;fontSize=12;html=1;endArrow=ERzeroToMany;endFill=1;startArrow=ERzeroToMany;rounded=0;entryX=-0.028;entryY=0.16;entryDx=0;entryDy=0;entryPerimeter=0;" edge="1" parent="1" target="5o4xbBL1ZPF9Y1dV_yGu-234">
          <mxGeometry width="100" height="100" relative="1" as="geometry">
            <mxPoint x="1050" y="-60" as="sourcePoint" />
            <mxPoint x="1150" y="-160" as="targetPoint" />
          </mxGeometry>
        </mxCell>
        <mxCell id="5o4xbBL1ZPF9Y1dV_yGu-251" value="" style="edgeStyle=entityRelationEdgeStyle;fontSize=12;html=1;endArrow=ERzeroToMany;startArrow=ERmandOne;rounded=0;exitX=1.017;exitY=0.107;exitDx=0;exitDy=0;exitPerimeter=0;" edge="1" parent="1" source="5o4xbBL1ZPF9Y1dV_yGu-234">
          <mxGeometry width="100" height="100" relative="1" as="geometry">
            <mxPoint x="1300" y="10" as="sourcePoint" />
            <mxPoint x="1400" y="-90" as="targetPoint" />
          </mxGeometry>
        </mxCell>
        <mxCell id="5o4xbBL1ZPF9Y1dV_yGu-252" value="&lt;font style=&quot;font-size: 24px;&quot;&gt;&lt;b&gt;explicacion:&lt;/b&gt;&lt;/font&gt;&amp;nbsp;&lt;br&gt;&lt;br&gt;&lt;i&gt;&lt;font style=&quot;font-size: 18px;&quot;&gt;Usuario es la categoria padre, colaboradores y publico registrado son sus hijas. Estas heredan todos los atributos de usuario mas sus atributos unicos de la entidad. estas dos entidades hijas tienen una relacion con los articulos. Los colaboradores lo publican y los lectores la comentan. estos articulos se dividen en categorias, y estas se dividen en sub categorias, que es una entidad hija de categorias y hereda a la vez todos sus atributos.&amp;nbsp;&lt;/font&gt;&lt;/i&gt;" style="text;strokeColor=none;align=center;fillColor=none;html=1;verticalAlign=middle;whiteSpace=wrap;rounded=0;" vertex="1" parent="1">
          <mxGeometry x="310" y="250" width="950" height="130" as="geometry" />
        </mxCell>
      </root>
    </mxGraphModel>
  </diagram>
</mxfile>
